<svg viewBox="258.51 180.43 121.71 236.39" fill="none" xmlns="http://www.w3.org/2000/svg">
<path d="M302.301 338.234C295.829 333.932 289.435 329.687 282.786 325.271C289.892 311.411 296.941 297.656 304.109 283.687C298.374 279.869 292.775 276.14 286.884 272.213C303.195 242.156 319.453 212.192 335.878 181.927C350.194 191.396 364.302 200.729 378.717 210.265C362.838 231.369 347.083 252.307 331.146 273.484C339.707 279.166 348.101 284.739 356.755 290.484C346.994 301.729 337.421 312.76 327.604 324.073C332.829 327.541 337.899 330.911 343.291 334.489C320.212 361.531 297.263 388.422 274.309 415.312C274.148 415.229 273.981 415.146 273.82 415.067C283.295 389.515 292.77 363.963 302.307 338.239L302.301 338.234ZM338.528 188.744C337.187 191.026 336.06 192.854 335.026 194.729C328.352 206.849 321.723 218.994 315.033 231.104C308.888 242.229 302.629 253.291 296.588 264.474C296.037 265.494 296.198 267.463 296.842 268.463C298.328 270.755 300.359 272.687 302.094 274.828C303.46 276.51 304.431 276.588 305.823 274.672C314.804 262.307 323.874 250 332.959 237.708C340.714 227.213 348.527 216.765 356.324 206.307C357.472 204.765 357.399 203.599 355.726 202.396C353.42 200.729 351.285 198.823 349.057 197.052C345.649 194.343 342.221 191.656 338.528 188.75V188.744Z" fill="#7D04D7"/>
<path d="M328.283 185.849C327 188.474 325.805 191.146 324.419 193.713C310.757 218.932 297.023 244.114 283.455 269.39C282.38 271.396 281.118 272.552 279.17 273.453C274.391 275.661 269.695 278.036 264.246 280.692C267.321 274.979 270.017 269.916 272.755 264.875C285.034 242.25 297.345 219.646 309.578 197C310.742 194.843 312.134 193.281 314.43 192.291C319.105 190.276 323.676 188.015 328.288 185.859L328.283 185.849Z" fill="#7D04D7"/>
<path d="M260.008 333.797C264.522 324.974 268.688 316.833 272.859 308.687C274.635 305.218 276.375 301.729 278.245 298.312C278.708 297.468 279.471 296.567 280.313 296.192C285.289 293.984 290.328 291.927 295.985 289.552C295.392 290.843 295.065 291.64 294.676 292.411C289.284 302.979 283.892 313.552 278.469 324.104C278.183 324.661 277.659 325.224 277.103 325.494C271.68 328.172 266.226 330.786 260.008 333.797Z" fill="#7D04D7"/>
<path d="M260.715 338.458C266.933 335.442 273.135 332.416 279.373 329.463C279.872 329.229 280.765 329.317 281.243 329.625C285.882 332.619 290.469 335.687 295.44 338.984C290.354 341.468 285.378 343.468 280.869 346.234C276.953 348.63 273.987 348.218 270.589 345.437C267.592 342.984 264.174 341.041 260.949 338.875C260.891 338.833 260.871 338.739 260.72 338.463L260.715 338.458Z" fill="#7D04D7"/>
<path d="M296.883 284.23C289.943 287.193 283.44 289.985 276.915 292.719C276.458 292.912 275.71 292.907 275.316 292.651C271.825 290.417 268.381 288.11 264.537 285.563C269.799 282.99 274.843 280.813 279.591 278.099C283.024 276.141 285.756 276.172 288.806 278.719C291.179 280.704 293.927 282.24 296.883 284.224V284.23Z" fill="#7D04D7"/>
<path d="M338.528 188.744C342.216 191.651 345.644 194.338 349.057 197.047C351.285 198.817 353.42 200.724 355.726 202.39C357.394 203.593 357.472 204.76 356.324 206.302C348.522 216.76 340.714 227.213 332.959 237.703C323.874 249.994 314.805 262.297 305.823 274.666C304.431 276.583 303.465 276.505 302.094 274.823C300.359 272.687 298.328 270.755 296.842 268.458C296.193 267.463 296.037 265.489 296.588 264.468C302.634 253.291 308.888 242.224 315.033 231.099C321.724 218.989 328.352 206.843 335.027 194.724C336.06 192.843 337.193 191.021 338.528 188.739V188.744Z" fill="#FAFF47"/>
</svg>