<svg width="654" height="207" viewBox="0 0 654 207" fill="none" xmlns="http://www.w3.org/2000/svg">
<path d="M124.115 9.96244C124.115 1.4438 114.102 -3.13076 107.663 2.446L3.45397 92.6937C-3.50503 98.7205 0.757511 110.153 9.9635 110.153H48.5244C54.0158 110.153 58.4674 114.605 58.4674 120.096V196.586C58.4674 205.104 68.4803 209.679 74.9198 204.102L179.128 113.854C186.088 107.828 181.825 96.3951 172.619 96.3951H134.058C128.567 96.3951 124.115 91.9435 124.115 86.4522V9.96244Z" fill="#FAFF47"/>
<path fill-rule="evenodd" clip-rule="evenodd" d="M579.857 170.671V34.0947H604.342V57.5588C609.187 49.4824 614.841 43.5739 621.302 39.8332C627.848 36.0075 634.479 34.0947 641.196 34.0947C642.471 34.0947 644.001 34.2222 645.786 34.4773C647.657 34.6473 649.357 34.9023 650.887 35.2424L653.31 35.625V59.8542L651.142 59.3441C649.782 59.004 647.997 58.749 645.786 58.579C643.576 58.324 641.791 58.1964 640.43 58.1964C631.249 58.1964 623.172 61.682 616.201 68.6532C609.23 75.5395 605.744 85.2311 605.744 97.7283V170.671H579.857Z" fill="#FAFF47"/>
<path fill-rule="evenodd" clip-rule="evenodd" d="M345.59 34.0947V170.671H371.477V34.0947H345.59Z" fill="#FAFF47"/>
<path fill-rule="evenodd" clip-rule="evenodd" d="M239.221 128.971V170.671H213.461V34.0947H239.221V99.6718L298.979 34.0947H331.448L279.399 88.7929L337.03 170.671H305.915L261.363 106.829L239.221 128.971Z" fill="#FAFF47"/>
<path fill-rule="evenodd" clip-rule="evenodd" d="M414.511 16.6632V0H388.624V16.5111V24.1909H414.511V16.6632Z" fill="#FAFF47"/>
<path fill-rule="evenodd" clip-rule="evenodd" d="M414.511 34.0947H388.624V125.143V170.671H414.511V125.143V34.0947Z" fill="#FAFF47"/>
<path fill-rule="evenodd" clip-rule="evenodd" d="M522.125 35.8755C517.214 34.6884 512.053 34.0947 506.643 34.0947C500.696 34.0947 495.091 34.6883 489.828 35.8755C484.935 36.9792 480.339 38.596 476.038 40.726C467.196 45.0617 460.65 50.5451 456.399 57.1763V34.0948H431.66V170.671V182.356L431.66 206.547H457.547V182.356V170.671V151.346C461.859 157.655 467.98 162.736 475.91 166.59C479.488 168.28 483.168 169.64 486.952 170.671C492.88 172.286 499.061 173.094 505.495 173.094C511.975 173.094 518.099 172.286 523.865 170.671C534.517 167.688 543.951 161.949 552.169 153.456C564.921 140.363 571.297 123.615 571.297 103.212C571.297 83.4884 565.006 67.038 552.424 53.8607C543.677 44.6386 533.578 38.6435 522.125 35.8755ZM533.04 137.005C524.624 145.337 513.869 149.502 500.777 149.502C488.025 149.502 477.44 145.252 469.024 136.75C460.608 128.164 456.399 117.027 456.399 103.339C456.399 90.417 460.48 79.5352 468.642 70.6937C476.888 61.7671 487.6 57.3038 500.777 57.3038C513.699 57.3038 524.411 61.4695 532.913 69.8009C541.499 78.1324 545.792 89.3119 545.792 103.339C545.792 117.367 541.542 128.589 533.04 137.005Z" fill="#FAFF47"/>
</svg>
