<svg width="558" height="556" viewBox="0 0 558 556" fill="none" xmlns="http://www.w3.org/2000/svg">
<g clip-path="url(#clip0_146_2705)">
<g clip-path="url(#clip1_146_2705)">
<path d="M561 760.334V765.021C559.821 766.579 557.572 766.579 556.912 769.271C549.479 799.636 541.781 829.933 534.161 860.256C533.87 861.412 533.662 862.594 533.418 863.761C533.563 863.787 533.714 863.808 533.859 863.834C541.142 854.146 548.419 844.464 555.79 834.657C553.899 832.568 554.175 830.334 554.949 827.865C556.715 822.25 558.232 816.558 559.899 810.912C560.122 810.157 560.632 809.485 561.006 808.776V907.214C553.406 903 545.801 898.787 538.056 894.495C523.907 925.881 509.903 956.948 495.846 988.131C501.976 991.584 507.83 994.875 513.694 998.183C513.326 999.599 513.009 1000.81 512.692 1002.01H502.823C503.96 1001.09 505.098 1000.18 506.391 999.146C502.381 996.907 498.475 994.704 494.532 992.568C494.096 992.334 493.317 992.282 492.911 992.516C487.535 995.641 482.195 998.839 476.85 1002.02H399.453C399.734 1001.44 399.915 1000.78 400.315 1000.3C414.127 984.073 427.965 967.865 441.793 951.646C446.619 945.99 451.434 940.329 456.431 934.464C451.159 930.948 446.078 927.563 440.796 924.042C450.551 912.792 460.166 901.703 469.921 890.448C461.262 884.698 452.862 879.12 444.312 873.448C460.264 852.245 476.014 831.318 491.883 810.23C477.432 800.678 463.319 791.349 449.034 781.907C432.614 812.162 416.356 842.125 400.05 872.183C405.931 876.105 411.525 879.834 417.27 883.667C410.138 897.594 403.094 911.36 395.973 925.266C402.57 929.651 408.964 933.896 415.395 938.167C415.099 939.094 414.896 939.839 414.626 940.563C408.959 955.839 403.261 971.099 397.63 986.391C395.723 991.568 393.988 996.813 392.176 1002.03H387.501C387.667 1001.2 387.734 1000.34 388.02 999.558C394.295 982.599 400.601 965.651 406.892 948.698C407.401 947.323 407.852 945.933 408.497 944.073C402.845 946.808 397.874 949.433 392.711 951.594C390.628 952.464 389.703 953.651 389.059 955.651C385.958 965.287 382.717 974.875 379.574 984.495C377.668 990.323 375.849 996.178 373.99 1002.02H320.487C320.009 1001.4 319.661 1000.56 319.038 1000.19C316.441 998.641 313.75 997.245 311.111 995.761C305.47 992.599 299.839 989.422 293.985 986.131C308.306 963.875 322.482 941.839 336.808 919.568C321.781 911.157 306.976 902.87 291.97 894.469C277.81 925.886 263.805 956.954 249.76 988.131C255.905 991.594 261.811 994.927 267.644 998.219C267.177 999.724 266.818 1000.87 266.46 1002.02H256.59C257.78 1001.13 258.969 1000.23 260.346 999.198C256.268 996.907 252.315 994.651 248.31 992.5C247.848 992.256 246.965 992.407 246.461 992.698C241.158 995.766 235.896 998.901 230.618 1002.02H153.74C154 1001.33 154.088 1000.5 154.54 999.969C169.069 982.87 183.639 965.802 198.194 948.724C202.21 944.016 206.215 939.297 210.329 934.459C205.041 930.938 200.007 927.589 194.688 924.047C204.433 912.808 214.048 901.719 223.808 890.454C215.191 884.724 206.791 879.146 198.215 873.443C214.157 852.261 229.912 831.329 245.791 810.23C231.382 800.704 217.258 791.37 202.942 781.907C186.528 812.167 170.269 842.131 153.958 872.193C159.859 876.12 165.454 879.839 171.194 883.657C164.025 897.636 156.976 911.396 149.87 925.256C156.519 929.667 162.919 933.912 169.391 938.204C164.176 952.261 159.002 966.136 153.88 980.037C151.19 987.344 148.587 994.688 145.949 1002.02H141.274C141.507 1001.1 141.668 1000.17 141.996 999.287C147.439 984.605 152.904 969.927 158.358 955.25C159.672 951.714 160.955 948.162 162.436 944.125C160.696 944.922 159.465 945.459 158.254 946.047C154.369 947.927 150.582 950.063 146.567 951.615C144.432 952.438 143.59 953.688 142.972 955.662C141.211 961.276 139.284 966.839 137.45 972.427C134.214 982.287 130.994 992.151 127.763 1002.02H74.2601C73.6887 1001.33 73.2523 1000.41 72.5303 999.995C64.4218 995.375 56.2665 990.834 47.8879 986.141C62.2089 963.875 76.4157 941.782 90.716 919.552C75.5846 911.084 60.8272 902.829 45.8932 894.469C31.7487 925.849 17.7393 956.927 3.67794 988.12C9.81258 991.584 15.7135 994.917 21.6092 998.245C21.0637 999.74 20.6534 1000.88 20.243 1002.01H10.3736C11.6254 1001.1 12.8721 1000.2 14.285 999.172C10.2541 996.933 6.46216 994.756 2.5871 992.735C1.89105 992.37 0.862548 992.651 -0.0153134 992.636C-0.0153134 990.204 -0.0153134 987.776 -0.0153134 985.344C0.46777 984.355 0.971631 983.375 1.42355 982.375C10.1398 963.037 18.8353 943.693 27.562 924.36C31.4059 915.849 35.3017 907.36 39.1716 898.865C39.13 898.855 39.0885 898.839 39.0417 898.829C39.0833 898.875 39.1248 898.927 39.1664 898.974C38.3093 899.282 37.3847 899.48 36.6003 899.917C32.611 902.162 28.5853 904.355 24.731 906.823C23.3129 907.73 21.9416 909.157 21.2404 910.672C15.4122 923.313 9.76583 936.037 4.01038 948.709C2.7793 951.422 1.33005 954.037 -0.0205078 956.693C-0.0205078 860.167 -0.0205078 763.636 -0.0205078 667.11C0.545687 666.599 1.17421 666.146 1.66249 665.573C7.6361 658.594 13.5837 651.594 19.5418 644.605C23.0065 640.537 26.4764 636.464 30.0917 632.214C24.7778 628.667 19.6976 625.282 14.4564 621.787C24.2479 610.495 33.8629 599.412 43.5972 588.188C34.9381 582.459 26.5283 576.896 17.9627 571.224C33.8577 550.105 49.6644 529.105 65.5646 507.98C51.1292 498.438 37.0055 489.105 22.726 479.662C19.921 484.813 17.2666 489.672 14.6278 494.542C10.332 502.469 6.06219 510.407 1.71963 518.308C1.38719 518.912 0.576853 519.25 -0.0153134 519.714C-0.0153134 517.282 -0.0153134 514.855 -0.0153134 512.422C5.25185 502.651 10.519 492.875 15.781 483.11C15.7342 483.11 15.6927 483.11 15.6459 483.11C15.6875 483.141 15.729 483.167 15.7706 483.198C10.5242 485.646 5.26224 488.094 0.000269966 490.542C0.000269966 476.131 0.000269966 461.724 0.000269966 447.313C7.97374 438.318 15.9472 429.318 23.9207 420.323L23.0065 420.089C23.1519 417.985 22.8247 415.703 23.5207 413.797C31.0059 393.297 38.6521 372.86 46.2516 352.401C47.223 349.787 48.1632 347.162 49.2852 344.084C43.5245 346.855 38.3716 349.495 33.0681 351.797C31.3747 352.532 30.5696 353.422 30.0138 355.11C21.6144 380.615 13.163 406.105 4.68046 431.584C3.22083 435.99 1.56899 440.334 0.000269966 444.709C0.000269966 352.172 0.000269966 259.641 0.000269966 167.105C5.69338 159.417 11.3917 151.73 17.2147 143.87C11.5631 140.688 6.24919 137.698 0.784631 134.625C9.70349 122.672 18.4457 110.948 27.375 98.9743C18.4094 93.9326 9.57363 88.9587 0.587242 83.9066C14.9707 61.5472 29.1359 39.516 43.3947 17.3493C38.7924 14.766 34.4862 12.391 30.2164 9.93783C25.666 7.32845 21.152 4.65137 16.6225 2.00033C42.5947 2.00033 68.5669 2.00033 94.5392 2.00033C94.3054 2.71908 94.16 3.4847 93.8223 4.15137C90.8771 9.93262 87.8851 15.693 84.9242 21.4639C83.3296 24.5732 81.7608 27.7035 79.8389 31.4899C86.0878 28.4795 91.6718 25.8232 97.2143 23.0785C97.7389 22.818 98.0766 22.0732 98.383 21.4899C101.791 15.0003 105.172 8.50033 108.564 2.00033C110.122 2.00033 111.681 2.00033 113.239 2.00033C109.707 8.99512 106.18 15.9847 102.611 23.0524C109.255 27.4691 115.644 31.7087 122.075 35.9795C112.434 61.9847 102.871 87.7816 93.3081 113.573C93.3444 113.573 93.3808 113.584 93.4224 113.594L93.3289 113.49C93.8899 112.969 94.5132 112.495 95.0119 111.912C116.221 87.0993 137.424 62.2816 158.618 37.4587C160.057 35.7764 161.444 34.0524 162.976 32.1982C157.646 28.6462 152.572 25.266 147.393 21.8128C149.715 19.1357 151.839 16.7399 153.896 14.2972C157.33 10.2191 160.727 6.10449 164.145 2.00033C185.094 2.00033 206.048 2.00033 226.998 2.00033C225.704 2.91699 224.322 3.7347 223.138 4.77637C222.021 5.75553 220.759 6.80762 220.167 8.1097C209.17 32.2868 198.267 56.5107 187.348 80.7243C185.161 85.5785 183.006 90.4482 180.538 95.9795C186.481 92.5472 191.774 89.5055 197.046 86.417C197.446 86.1826 197.789 85.7139 197.987 85.2764C201.327 77.8128 204.62 70.3232 207.965 62.8649C217.066 42.5732 226.192 22.292 235.309 2.00033C236.867 2.00033 238.425 2.00033 239.984 2.00033C239.817 2.57324 239.724 3.1722 239.48 3.70866C231.834 20.7035 224.172 37.6878 216.515 54.6774C211.856 65.016 207.207 75.3597 202.459 85.9014C208.495 89.3128 214.406 92.6514 220.468 96.0785C214.354 110.532 208.329 124.782 202.256 139.136C208.635 142.714 214.718 146.177 220.868 149.526C222.291 150.302 222.587 151.105 222.141 152.625C214.967 177.073 207.84 201.537 200.729 226.006C200.615 226.396 200.854 226.891 200.927 227.339C201.192 227.48 201.462 227.615 201.727 227.756C222.198 199.855 242.664 171.948 263.265 143.87C257.64 140.693 252.336 137.693 246.877 134.605C255.811 122.636 264.553 110.917 273.467 98.9691C264.449 93.8962 255.609 88.9274 246.674 83.9014C261.063 61.5212 275.238 39.4847 289.445 17.3857C280.183 12.1357 271.249 7.06803 262.32 2.00033C288.463 2.00033 314.612 2.00033 340.756 2.00033C339.01 5.56803 337.307 9.15137 335.52 12.693C332.46 18.7503 329.344 24.7764 325.884 31.5316C332.19 28.4847 337.764 25.7972 343.327 23.0837C343.686 22.9066 344.039 22.5628 344.215 22.2087C347.576 15.4795 350.916 8.73991 354.261 2.00033C355.82 2.00033 357.378 2.00033 358.936 2.00033C358.775 2.63053 358.729 3.31803 358.443 3.88053C355.892 8.90137 353.285 13.8962 350.719 18.9066C350.023 20.2607 349.405 21.6566 348.724 23.0837C354.5 26.9118 359.97 30.7243 365.642 34.1982C367.85 35.5472 367.97 36.7451 367.138 38.9639C360.006 57.9222 352.984 76.9222 345.93 95.9066C343.909 101.349 341.899 106.797 339.878 112.245C340.091 112.381 340.304 112.516 340.517 112.651C363.336 85.9066 386.155 59.1566 409.115 32.2451C403.749 28.6618 398.674 25.2816 393.469 21.8076C394.492 20.6149 395.282 19.7035 396.061 18.7868C400.83 13.193 405.593 7.59928 410.361 2.00033C431.311 2.00033 452.265 2.00033 473.214 2.00033C472.186 2.73991 471.235 3.65137 470.108 4.18262C467.942 5.20345 466.716 6.83366 465.745 9.00033C454.738 33.568 443.642 58.0993 432.578 82.641C430.682 86.8441 428.817 91.0576 426.937 95.266C432.604 92.5316 437.84 89.5212 443.05 86.4587C443.507 86.1878 443.881 85.6357 444.11 85.1305C445.543 81.9795 446.899 78.792 448.317 75.6357C459.387 51.0837 470.456 26.542 481.525 2.00033C483.084 2.00033 484.642 2.00033 486.2 2.00033C486.07 2.41178 485.977 2.83366 485.8 3.22428C474.404 28.5055 462.997 53.7816 451.6 79.0628C450.582 81.318 449.611 83.5941 448.582 85.9326C454.712 89.3857 460.56 92.6878 466.55 96.0628C460.441 110.511 454.41 124.766 448.338 139.125C454.447 142.558 460.259 145.98 466.233 149.094C468.409 150.23 468.617 151.375 467.983 153.547C460.966 177.5 454.041 201.48 447.107 225.453C446.909 226.131 446.847 226.849 446.722 227.547C447.019 227.703 447.315 227.86 447.616 228.011C468.144 200.026 488.673 172.042 509.342 143.86C503.82 140.74 498.496 137.729 492.958 134.599C501.893 122.625 510.661 110.865 519.549 98.9482C510.49 93.8649 501.706 88.9326 492.75 83.9066C507.103 61.5941 521.278 39.5472 535.516 17.4118C534.685 16.9066 534.114 16.5316 533.516 16.1982C526.047 12.0055 518.567 7.82845 511.113 3.59928C510.495 3.25033 510.084 2.54199 509.575 1.99512C526.691 1.99512 543.812 1.99512 561 1.99512V134.287C559.764 138.141 558.523 141.995 557.338 145.698C558.507 144.714 559.754 143.667 561 142.62V192.099C558.824 193.006 557.11 194.209 555.884 196.485C544.42 217.844 532.81 239.125 521.252 260.438C517.72 266.948 514.219 273.469 510.334 280.667C516.577 277.636 522.151 274.948 527.699 272.214C528.109 272.011 528.436 271.511 528.67 271.073C536.446 256.677 544.176 242.261 551.978 227.881C554.897 222.5 557.988 217.219 561 211.891V220.745C560.533 221.532 560.039 222.297 559.603 223.099C553.188 234.896 546.773 246.693 540.368 258.495C537.906 263.032 535.48 267.584 532.992 272.219C538.877 276.146 544.518 279.912 550.186 283.693C542.991 297.73 535.968 311.427 528.867 325.276C535.459 329.646 541.864 333.891 548.362 338.193C546.923 342.136 545.552 345.943 544.139 349.73C536.628 369.849 529.091 389.964 521.616 410.094C521.346 410.823 521.58 411.74 521.58 412.568C523.87 410.886 525.585 409.188 527.148 407.365C537.854 394.87 548.523 382.339 559.234 369.849C559.681 369.328 560.408 369.052 561.006 368.662V648.87C554.014 664.344 547.027 679.823 539.729 695.98C545.391 692.719 550.409 689.907 555.323 686.927C556.31 686.329 557.042 685.157 557.634 684.105C558.85 681.959 559.894 679.719 561.006 677.516V690.537C560.2 690.443 559.193 689.99 558.621 690.308C552.622 693.677 546.695 697.167 540.425 700.813C544.638 703.188 548.534 705.381 552.144 707.412C555.25 706.063 558.128 704.808 561.006 703.558V708.245C557.323 709.37 555.105 711.683 553.65 715.417C549.921 724.995 545.723 734.386 541.719 743.855C541.048 745.443 540.404 747.047 539.516 749.219C545.349 745.839 550.596 742.849 555.77 739.745C556.476 739.323 556.938 738.381 557.343 737.594C558.611 735.125 559.79 732.615 561.006 730.12V743.662C559.816 743.787 558.471 743.589 557.468 744.089C554.694 745.464 552.061 747.125 549.38 748.688C546.451 750.396 543.531 752.12 540.259 754.042C544.201 756.266 547.869 758.021 551.188 760.287C554.429 762.5 557.349 763.266 560.507 760.407C560.611 760.313 560.834 760.349 561.006 760.329L561 760.334ZM392.742 404.974C388.192 407.287 383.688 409.693 379.075 411.86C377.278 412.703 376.26 413.912 375.533 415.677C372.286 423.521 368.956 431.334 365.658 439.157C364.017 443.047 362.37 446.938 360.448 451.49C366.453 448.042 371.777 445 377.07 441.901C377.532 441.631 377.896 441.047 378.114 440.526C381.231 433.193 384.358 425.86 387.392 418.49C389.23 414.032 390.913 409.506 392.659 405.021L392.742 405.084V404.974ZM541.952 290.162C541.464 290.183 540.924 290.068 540.503 290.24C535.714 292.214 530.924 294.193 526.187 296.292C525.408 296.636 524.696 297.48 524.291 298.261C518.718 309.016 513.196 319.802 507.674 330.589C507.243 331.433 506.931 332.344 506.381 333.662C512.323 330.782 517.772 328.167 523.19 325.49C523.746 325.214 524.276 324.657 524.561 324.099C530.369 312.782 536.134 301.443 541.89 290.099L541.822 290L541.952 290.162ZM328.294 185.855C323.682 188.011 319.111 190.271 314.436 192.287C312.145 193.276 310.748 194.839 309.584 196.995C297.356 219.646 285.04 242.25 272.761 264.87C270.023 269.912 267.322 274.974 264.252 280.688C269.696 278.032 274.397 275.651 279.176 273.448C281.124 272.547 282.386 271.391 283.461 269.386C297.029 244.115 310.763 218.933 324.424 193.709C325.817 191.141 327.006 188.469 328.289 185.844C328.377 185.776 328.466 185.703 328.554 185.636C328.502 185.636 328.424 185.62 328.393 185.646C328.341 185.698 328.326 185.782 328.289 185.849L328.294 185.855ZM474.139 997.855C479.557 994.808 484.98 991.776 490.377 988.688C490.839 988.422 491.197 987.839 491.431 987.323C501.934 964.037 512.417 940.745 522.894 917.448C525.642 911.334 528.364 905.209 531.423 898.365C526.099 901.438 521.408 904 516.889 906.839C515.466 907.735 514.094 909.183 513.393 910.698C507.342 923.849 501.446 937.079 495.504 950.282C488.361 966.157 481.214 982.026 474.082 997.886C474.092 997.917 474.102 997.943 474.113 997.974C474.123 997.933 474.128 997.896 474.139 997.855ZM195.337 785.87C190.491 788.131 185.582 790.266 180.834 792.724C179.354 793.49 177.931 794.901 177.126 796.37C163.438 821.375 149.855 846.433 136.256 871.485C134.734 874.292 133.253 877.12 131.752 879.943C136.77 878.016 141.3 875.672 145.943 873.568C148.068 872.605 149.481 871.37 150.639 869.214C162.966 846.235 175.463 823.349 187.878 800.412C190.465 795.631 192.886 790.761 195.384 785.927C195.483 785.855 195.582 785.787 195.675 785.709C195.68 785.704 195.597 785.599 195.556 785.542C195.488 785.657 195.415 785.771 195.348 785.881L195.337 785.87ZM174.025 264.584C181.058 255.245 188.112 245.917 195.098 236.537C195.623 235.828 196.205 234.464 195.888 233.948C194.615 231.896 195.098 229.985 195.691 227.948C201.233 208.891 206.76 189.834 212.276 170.771C213.554 166.355 214.78 161.922 216.183 156.969C210.547 160.219 205.513 163.266 200.319 166.021C198.849 166.802 198.231 167.657 197.851 169.177C192.792 189.448 187.655 209.693 182.569 229.959C179.681 241.474 176.866 253.006 174.014 264.526C173.993 264.573 173.973 264.62 173.952 264.672C173.931 264.625 173.905 264.578 173.884 264.532C173.931 264.547 173.978 264.568 174.025 264.584ZM56.2353 338.235C46.7087 363.891 37.2496 389.375 27.7905 414.86L28.3204 415.214C51.2331 388.36 74.1406 361.506 97.1883 334.495C91.916 330.98 86.8358 327.589 81.5427 324.063C91.3394 312.766 100.949 301.683 110.668 290.474C101.983 284.714 93.5782 279.136 85.0593 273.485C101.027 252.266 116.782 231.328 132.64 210.261C118.226 200.73 104.107 191.396 89.7914 181.927C73.3718 212.193 57.1132 242.157 40.8078 272.214C46.7399 276.172 52.3862 279.933 58.0326 283.698C50.8071 297.787 43.7842 311.485 36.7146 325.271C43.3479 329.677 49.7423 333.922 56.2405 338.235H56.2353ZM357.856 592.203C343.68 623.646 329.671 654.73 315.63 685.881C321.791 689.349 327.655 692.651 333.665 696.032C327.557 710.474 321.531 724.724 315.449 739.105C321.703 742.61 327.671 746.052 333.743 749.308C335.468 750.235 335.748 751.105 335.208 752.959C329.167 773.584 323.225 794.24 317.261 814.886C315.848 819.776 314.451 824.672 313.049 829.568C313.184 829.62 313.319 829.672 313.449 829.73C334.408 801.146 355.368 772.558 376.436 743.829C370.842 740.667 365.544 737.677 360.058 734.573C369.029 722.552 377.761 710.844 386.654 698.933C377.626 693.86 368.801 688.907 359.856 683.881C374.26 661.495 388.41 639.495 402.674 617.323C387.719 608.943 372.946 600.667 357.861 592.214L357.856 592.203ZM453.875 710.646C454.213 710.834 454.556 711.026 454.893 711.214C477.323 684.927 499.753 658.646 522.312 632.209C516.941 628.636 511.918 625.297 506.64 621.782C516.422 610.511 526.036 599.427 535.786 588.193C527.184 582.485 518.775 576.907 510.173 571.198C526.125 550.006 541.88 529.073 557.759 507.974C543.318 498.427 529.205 489.099 514.9 479.641C498.516 509.865 482.284 539.808 465.942 569.943C471.697 573.771 477.37 577.547 483.151 581.391C476.014 595.318 468.955 609.094 461.828 622.995C467.443 626.714 472.773 630.412 478.289 633.813C480.663 635.276 481.224 636.526 480.175 639.302C471.521 662.256 463.059 685.276 454.545 708.282C454.265 709.047 454.093 709.855 453.875 710.641V710.646ZM197.181 445.995C191.842 442.964 186.491 439.927 181.042 436.828C190.018 424.792 198.75 413.084 207.607 401.209C198.553 396.115 189.774 391.172 180.829 386.141C195.213 363.782 209.388 341.745 223.642 319.584C208.562 311.141 193.8 302.875 178.829 294.495C164.68 325.875 150.665 356.959 136.604 388.146C142.744 391.615 148.66 394.959 154.628 398.334C148.494 412.834 142.489 427.016 136.422 441.355C143.305 445.23 149.99 448.995 156.831 452.849C149.481 478.266 142.172 503.547 134.77 529.146C137.175 528.563 193.078 453.459 197.181 445.99V445.995ZM426.906 386.151C441.242 363.865 455.449 341.771 469.729 319.573C454.634 311.125 439.871 302.87 424.885 294.49C410.746 325.865 396.747 356.943 382.691 388.141C388.856 391.631 394.762 394.969 400.746 398.355C394.581 412.86 388.55 427.052 382.472 441.355C387.901 444.401 393.022 447.282 398.154 450.146C401.358 451.931 402.445 454.585 401.417 458.11C394.84 480.834 388.264 503.558 381.714 526.292C381.418 527.318 381.408 528.427 381.262 529.5C381.548 529.594 381.839 529.688 382.124 529.782C402.528 501.964 422.932 474.141 443.492 446.11C437.856 442.933 432.459 439.886 427.088 436.855C435.975 424.953 444.795 413.146 453.709 401.209C444.629 396.11 435.892 391.203 426.906 386.157V386.151ZM302.307 338.235C292.77 363.964 283.295 389.511 273.82 415.063C273.981 415.146 274.147 415.23 274.309 415.308C297.258 388.417 320.207 361.526 343.291 334.485C337.899 330.907 332.829 327.537 327.603 324.068C337.421 312.756 346.994 301.724 356.755 290.48C348.106 284.735 339.712 279.167 331.146 273.48C347.083 252.302 362.837 231.365 378.717 210.261C364.307 200.73 350.194 191.396 335.878 181.922C319.453 212.188 303.195 242.151 286.884 272.209C292.78 276.136 298.374 279.86 304.109 283.683C296.946 297.657 289.892 311.412 282.786 325.266C289.435 329.683 295.829 333.933 302.301 338.23L302.307 338.235ZM276.22 632.214C270.917 628.688 265.842 625.308 260.554 621.792C270.34 610.506 279.95 599.422 289.689 588.188C281.015 582.438 272.61 576.87 264.075 571.209C280.054 549.98 295.813 529.042 311.662 507.995C297.258 498.469 283.134 489.131 268.813 479.657C252.419 509.87 236.192 539.782 219.834 569.933C225.626 573.787 231.288 577.552 237.054 581.396C229.912 595.339 222.858 609.11 215.741 623C221.642 626.907 227.299 630.735 233.049 634.412C234.696 635.464 235.163 636.318 234.41 638.318C229.132 652.256 224.016 666.256 218.842 680.235C214.889 690.907 210.926 701.579 206.968 712.245C207.17 712.391 207.368 712.537 207.57 712.683C230.384 685.938 253.203 659.193 276.22 632.219V632.214ZM69.5383 685.881C74.9873 688.943 80.2181 691.969 85.5372 694.828C87.163 695.703 87.5059 696.427 86.7267 698.224C81.1894 711.026 75.834 723.912 70.2863 736.709C69.4136 738.724 69.8811 739.526 71.6628 740.474C77.0858 743.36 82.3842 746.48 87.802 749.37C89.4226 750.235 89.6979 751.094 89.1837 752.839C82.0257 777.287 74.9509 801.756 67.8761 826.23C67.7306 826.74 67.8553 827.334 67.8553 827.891C68.089 827.959 68.328 828.021 68.5617 828.089C89.1266 800.047 109.691 772.006 130.36 743.823C124.807 740.688 119.483 737.688 113.966 734.573C122.864 722.646 131.607 710.927 140.557 698.933C131.596 693.896 122.813 688.964 113.764 683.881C128.111 661.573 142.281 639.526 156.566 617.313C141.58 608.917 126.807 600.636 111.774 592.214C97.6506 623.532 83.6204 654.641 69.5331 685.881H69.5383ZM420.059 264.011C420.2 264.047 420.345 264.084 420.485 264.12C427.508 254.782 434.542 245.453 441.518 236.078C441.928 235.526 442.016 234.615 441.996 233.875C441.949 232.063 441.232 230.099 441.699 228.459C447.18 209.131 452.836 189.849 458.431 170.552C459.683 166.24 460.857 161.907 462.233 156.995C456.831 160.105 452.135 163.047 447.211 165.537C445.024 166.641 444.182 168.078 443.627 170.302C438.323 191.651 432.916 212.974 427.545 234.302C425.051 244.203 422.558 254.105 420.065 264.006L420.059 264.011ZM108.143 566.219C108.273 566.282 108.403 566.344 108.533 566.412C115.649 556.927 122.776 547.453 129.851 537.938C130.173 537.506 130.339 536.516 130.074 536.162C128.76 534.381 129.134 532.62 129.685 530.719C135.705 510.006 141.689 489.282 147.678 468.563C148.52 465.646 149.33 462.724 150.296 459.308C148.816 460.11 147.896 460.584 146.998 461.105C142.879 463.485 138.796 465.927 134.63 468.23C133.508 468.849 132.511 469.157 132.126 470.698C124.179 502.552 116.153 534.386 108.138 566.224L108.143 566.219ZM541.521 344.032C535.766 346.818 530.711 349.495 525.46 351.688C523.528 352.495 522.691 353.547 522.089 355.37C513.788 380.547 505.435 405.703 497.093 430.865C495.239 436.453 493.374 442.042 491.514 447.631C499.737 438.917 507.539 429.99 515.289 421.021C515.622 420.636 515.539 419.839 515.549 419.235C515.585 417.5 515.087 415.589 515.642 414.052C521.242 398.573 527.008 383.151 532.732 367.719C535.584 360.021 538.446 352.323 541.521 344.037V344.032ZM474.435 641.782C468.674 644.563 463.693 647.172 458.529 649.36C456.462 650.235 455.589 651.427 454.925 653.448C447.974 674.599 440.91 695.714 433.892 716.839C430.739 726.339 427.628 735.855 424.501 745.365C432.651 736.657 440.468 727.75 448.239 718.808C448.582 718.412 448.779 717.448 448.541 717.052C447.403 715.172 447.881 713.427 448.567 711.579C454.104 696.724 459.615 681.865 465.121 667C468.15 658.823 471.162 650.641 474.435 641.776V641.782ZM66.4268 143.073C66.7697 143.193 67.1073 143.308 67.4501 143.427C74.9146 134.933 82.3738 126.438 89.8849 117.886C88.1967 115.844 88.4305 113.87 89.2512 111.677C96.6689 91.8753 104.014 72.0472 111.369 52.2243C112.579 48.9587 113.722 45.667 115.083 41.8597C109.395 44.6045 104.414 47.2451 99.2349 49.4014C97.1156 50.2816 96.2689 51.5316 95.63 53.516C92.6796 62.6722 89.62 71.7868 86.5917 80.917C79.9324 100.99 73.2627 121.063 66.6242 141.146C66.4268 141.745 66.4892 142.433 66.432 143.078L66.4268 143.073ZM311.309 145.381C311.438 145.459 311.563 145.532 311.693 145.61C319.77 136.37 327.853 127.131 335.998 117.813C334.216 115.896 334.491 113.995 335.281 111.875C342.527 92.4899 349.706 73.0785 356.895 53.6722C358.292 49.9014 359.658 46.1253 361.227 41.8441C355.513 44.5837 350.438 47.1982 345.207 49.4274C343.306 50.2347 342.449 51.3337 341.847 53.167C337.951 65.0993 333.956 77.0003 330.003 88.917C323.765 107.735 317.537 126.558 311.309 145.375V145.381ZM83.3192 756.896C77.7247 760.131 72.8731 763.151 67.8034 765.74C65.9334 766.693 65.2529 767.886 64.7958 769.704C58.9884 792.891 53.1394 816.073 47.3009 839.25C45.2387 847.443 43.1713 855.636 40.9273 864.542C41.9194 863.391 42.4545 862.844 42.9116 862.235C49.2124 853.865 55.4873 845.48 61.809 837.125C62.8894 835.698 63.7309 834.542 62.5102 832.605C61.9544 831.719 62.2557 830.058 62.5933 828.87C67.7826 810.724 73.0394 792.594 78.2754 774.464C79.9012 768.823 81.5115 763.177 83.314 756.896H83.3192ZM179.037 743.448C179.38 743.657 179.728 743.86 180.071 744.068C187.722 735.329 195.369 726.594 203.056 717.813C201.436 715.87 201.571 713.969 202.36 711.844C210.261 690.677 218.11 669.49 225.964 648.302C226.696 646.318 227.356 644.308 228.208 641.86C222.561 644.579 217.502 647.23 212.256 649.422C210.318 650.235 209.544 651.323 208.947 653.141C199.399 682.084 189.795 711.006 180.201 739.933C179.811 741.105 179.427 742.276 179.042 743.448H179.037ZM354.277 565.948C354.407 566.011 354.537 566.079 354.667 566.141C355.316 565.344 355.991 564.568 356.609 563.75C362.65 555.724 368.671 547.683 374.717 539.667C375.849 538.167 377.278 536.927 375.574 534.756C375.013 534.042 375.314 532.391 375.631 531.282C380.763 513.386 385.968 495.511 391.142 477.625C392.866 471.657 394.57 465.683 396.378 459.375C395.479 459.813 394.939 460.037 394.435 460.328C389.942 462.922 385.558 465.74 380.914 468.026C379.003 468.969 378.348 470.146 377.896 471.974C373.683 488.959 369.424 505.927 365.154 522.896C361.544 537.25 357.903 551.599 354.277 565.948ZM295.414 344.052C289.606 346.855 284.484 349.365 279.321 351.787C278.023 352.396 276.854 352.677 276.277 354.443C268.184 379.151 259.961 403.813 251.775 428.49C249.661 434.87 247.557 441.25 245.448 447.631C245.573 447.698 245.703 447.771 245.827 447.839C253.9 438.605 261.966 429.375 270.08 420.094C268.169 417.828 268.828 415.605 269.67 413.349C275.238 398.412 280.786 383.464 286.339 368.521C289.289 360.578 292.229 352.636 295.408 344.052H295.414ZM309.781 834.662C307.844 832.693 308.083 830.594 308.758 828.282C314.539 808.48 320.253 788.657 325.983 768.839C327.079 765.052 328.133 761.25 329.349 756.943C323.765 760.157 318.726 763.188 313.547 765.943C312.088 766.719 311.397 767.589 311.023 769.12C309.423 775.693 307.714 782.235 306.052 788.792C300.042 812.48 294.032 836.162 288.048 859.855C287.944 860.261 288.152 860.745 288.214 861.193C288.463 861.334 288.713 861.474 288.957 861.61C296.385 853.188 302.514 843.719 309.776 834.657L309.781 834.662ZM377.408 880.62C382.166 878.328 386.192 876.203 390.363 874.433C393.677 873.026 395.827 870.927 397.578 867.641C409.92 844.485 422.532 821.469 435.051 798.412C437.3 794.266 439.533 790.105 442.136 785.276C436.406 788.052 431.347 790.422 426.376 792.974C425.243 793.558 424.137 794.605 423.524 795.719C413.551 813.953 403.661 832.23 393.75 850.495C388.43 860.297 383.117 870.105 377.408 880.625V880.62ZM171.827 299.183C171.692 299.063 171.557 298.943 171.422 298.828C167.194 301.282 163.054 303.901 158.706 306.12C156.13 307.433 154.66 309.328 153.517 311.87C141.113 339.526 128.641 367.151 116.19 394.787C115.779 395.693 115.447 396.636 114.855 398.115C119.727 395.318 124.002 392.745 128.397 390.386C130.786 389.105 132.183 387.37 133.311 384.829C143.138 362.662 153.169 340.589 163.137 318.485C166.036 312.052 168.929 305.615 171.827 299.183ZM228.203 997.36L228.556 997.797C232.872 995.282 237.127 992.636 241.537 990.292C243.869 989.058 245.298 987.469 246.394 985.006C256.72 961.813 267.208 938.693 277.643 915.547C280.116 910.068 282.557 904.573 285.331 898.36C280.402 901.209 276.23 903.808 271.878 906.068C269.332 907.391 267.826 909.261 266.683 911.823C259.702 927.495 252.601 943.11 245.552 958.75C239.755 971.615 233.979 984.485 228.192 997.355L228.203 997.36ZM197.659 577.49L198.033 577.985C202.516 575.813 206.968 573.573 211.492 571.49C213.731 570.459 215.32 569.183 216.583 566.818C228.613 544.276 240.856 521.855 253.042 499.391C255.873 494.172 258.704 488.954 261.909 483.037C256.237 485.776 251.245 488.084 246.368 490.62C245.095 491.282 243.843 492.459 243.152 493.714C232.717 512.782 222.374 531.907 212.012 551.016C207.227 559.839 202.443 568.667 197.659 577.49ZM18.5548 279.922C18.6691 280.052 18.7782 280.177 18.8925 280.308C23.4844 278.099 28.0451 275.834 32.6733 273.714C34.8602 272.714 36.3198 271.36 37.5249 269.12C51.8824 242.401 66.406 215.776 80.8726 189.115C81.4492 188.052 81.9426 186.948 82.6958 185.412C77.2469 188.037 72.2914 190.302 67.4657 192.823C66.1204 193.526 64.801 194.766 64.0685 196.094C55.1029 212.422 46.2412 228.813 37.3639 245.193C31.089 256.766 24.8193 268.344 18.5496 279.922H18.5548ZM294.094 695.011C294.219 695.172 294.343 695.334 294.463 695.49C298.702 693.052 302.888 690.511 307.205 688.224C309.677 686.912 311.168 685.172 312.337 682.542C322.134 660.459 332.143 638.464 342.08 616.443C345.026 609.917 347.945 603.381 351.207 596.115C345.758 599.256 340.964 601.927 336.283 604.792C335.125 605.5 334.013 606.683 333.452 607.912C327.172 621.605 320.996 635.349 314.799 649.084C307.896 664.391 300.998 679.703 294.094 695.011ZM417.924 299.141C417.805 299.016 417.686 298.886 417.561 298.761C412.299 301.828 407.021 304.865 401.801 307.995C401.219 308.344 400.882 309.214 400.57 309.907C393.978 324.464 387.402 339.026 380.831 353.594C376.452 363.302 372.089 373.016 367.715 382.724C365.497 387.641 363.279 392.558 361.061 397.48C365.507 395.48 369.466 393.037 373.574 390.881C376.431 389.381 378.28 387.443 379.647 384.349C389.069 362.959 398.757 341.683 408.356 320.375C411.546 313.297 414.735 306.219 417.924 299.141ZM443.705 577.568C443.819 577.709 443.933 577.855 444.047 577.995C448.541 575.829 452.992 573.568 457.548 571.537C459.932 570.474 461.511 568.98 462.784 566.61C475.567 542.792 488.496 519.052 501.378 495.287C503.467 491.438 505.518 487.568 507.934 483.073C502.532 485.672 497.841 488.016 493.067 490.172C491.145 491.042 489.883 492.323 488.896 494.162C481.432 508.052 473.9 521.907 466.383 535.766C458.826 549.698 451.262 563.631 443.699 577.563L443.705 577.568ZM47.6333 695.943C52.6875 693.021 57.0353 690.412 61.4817 687.98C63.5907 686.823 64.9984 685.412 66.0321 683.099C77.6624 657.006 89.4538 630.98 101.193 604.933C102.409 602.23 103.588 599.511 105.079 596.141C99.6972 599.245 94.9391 601.886 90.3057 604.74C89.085 605.49 87.9059 606.73 87.3137 608.021C76.4833 631.813 65.7412 655.651 54.9887 679.48C52.62 684.724 50.2929 689.99 47.6333 695.943ZM212.983 102.407C207.581 105.188 202.859 107.516 198.251 110.052C197.155 110.657 196.127 111.802 195.592 112.943C193.763 116.86 192.174 120.886 190.491 124.87C187.146 132.797 183.801 140.719 180.18 149.292C186.148 145.844 191.509 142.766 196.844 139.631C197.301 139.365 197.654 138.787 197.872 138.276C199.566 134.302 201.202 130.302 202.88 126.318C206.131 118.599 209.399 110.886 212.983 102.407ZM409.322 889.427C403.364 891.954 398.134 894.125 392.96 896.422C392.28 896.724 391.77 897.62 391.386 898.349C388.264 904.334 385.179 910.334 382.098 916.339C379.231 921.933 376.379 927.532 373.211 933.73C379.402 930.73 384.981 928.047 390.534 925.308C391.012 925.073 391.417 924.521 391.677 924.021C394.996 917.552 398.274 911.063 401.578 904.589C404.035 899.766 406.502 894.954 409.328 889.427H409.322ZM114.652 450.724C114.766 450.865 114.875 451.006 114.99 451.146C120.293 448.084 125.612 445.042 130.879 441.917C131.461 441.573 131.872 440.787 132.157 440.115C134.11 435.578 136.006 431.021 137.918 426.474C140.884 419.427 143.855 412.381 147.091 404.693C141.409 407.599 136.334 410.167 131.3 412.813C130.76 413.094 130.324 413.776 130.069 414.37C124.911 426.48 119.784 438.599 114.647 450.719L114.652 450.724ZM459.049 102.422C453.662 105.193 448.899 107.573 444.224 110.11C443.258 110.631 442.286 111.589 441.85 112.578C438.552 120.115 435.388 127.709 432.183 135.287C430.308 139.714 428.428 144.136 426.236 149.308C432.298 145.802 437.663 142.714 442.993 139.573C443.45 139.302 443.793 138.703 444.016 138.183C446.681 131.881 449.304 125.563 451.948 119.256C454.213 113.86 456.493 108.469 459.049 102.422ZM50.0903 289.464C44.8803 291.667 40.1585 293.516 35.5874 295.688C34.0914 296.396 32.5435 297.703 31.7695 299.141C27.4633 307.141 23.3857 315.266 19.2405 323.355C17.5835 326.594 15.9576 329.855 13.9837 333.771C20.2378 330.745 25.7647 328.094 31.25 325.37C31.7955 325.099 32.2318 324.443 32.5279 323.865C34.8654 319.328 37.1405 314.756 39.4573 310.209C42.9012 303.459 46.3659 296.719 50.0851 289.464H50.0903ZM162.898 890.162C162.742 890.042 162.581 889.922 162.425 889.802C157.413 891.901 152.369 893.938 147.408 896.157C146.504 896.563 145.715 897.599 145.232 898.532C139.793 908.959 134.417 919.422 129.035 929.886C128.49 930.948 128.043 932.058 127.311 933.672C133.336 930.74 138.775 928.12 144.177 925.422C144.79 925.115 145.325 924.443 145.658 923.813C148.094 919.136 150.463 914.422 152.868 909.724C156.208 903.198 159.558 896.683 162.903 890.162H162.898ZM193.338 630.766C193.473 630.886 193.613 631.006 193.748 631.12C199.186 628.49 204.641 625.881 210.058 623.203C210.609 622.933 211.118 622.355 211.404 621.792C215.497 613.875 219.559 605.943 223.611 598.006C225.346 594.61 227.039 591.193 229.013 587.261C224.052 589.328 219.793 591.235 215.435 592.865C212.921 593.808 211.31 595.302 210.225 597.787C208.775 601.11 206.916 604.256 205.254 607.49C201.275 615.245 197.306 623.006 193.332 630.766H193.338ZM80.0674 702.412C74.447 705.282 69.3773 707.808 64.3854 710.48C63.6634 710.865 63.1543 711.875 62.7959 712.704C59.2014 721.047 55.6484 729.412 52.0954 737.776C50.5682 741.381 49.0774 745 47.3113 749.24C53.1966 745.834 58.4378 742.829 63.6322 739.75C64.2296 739.396 64.7438 738.703 65.0243 738.052C67.1073 733.198 69.1124 728.313 71.1642 723.448C74.0367 716.625 76.93 709.813 80.057 702.407L80.0674 702.412ZM293.699 748.453L294.219 748.771C299.444 745.74 304.68 742.719 309.89 739.657C310.368 739.375 310.846 738.891 311.054 738.391C315.791 727.141 320.487 715.881 325.183 704.615C325.417 704.052 325.562 703.459 325.848 702.568C320.695 705.193 315.9 707.573 311.179 710.099C310.285 710.579 309.428 711.511 309.023 712.443C305.657 720.136 302.4 727.875 299.117 735.61C297.299 739.886 295.502 744.172 293.694 748.459L293.699 748.453ZM260.008 333.797C266.226 330.787 271.68 328.172 277.103 325.495C277.659 325.219 278.184 324.662 278.469 324.105C283.897 313.552 289.289 302.985 294.676 292.412C295.065 291.646 295.398 290.844 295.985 289.552C290.333 291.927 285.29 293.985 280.313 296.193C279.467 296.568 278.703 297.469 278.246 298.313C276.376 301.73 274.636 305.219 272.859 308.688C268.688 316.828 264.522 324.974 260.008 333.797ZM439.445 630.677C439.58 630.823 439.72 630.969 439.855 631.115C445.356 628.443 450.862 625.792 456.343 623.084C456.826 622.844 457.262 622.334 457.517 621.839C462.654 611.828 467.776 601.802 472.861 591.766C473.328 590.844 473.557 589.808 473.983 588.584C472.949 588.584 472.393 588.433 471.967 588.605C467.578 590.417 463.199 592.266 458.846 594.162C458.353 594.375 457.865 594.87 457.61 595.36C451.533 607.125 445.486 618.901 439.44 630.683L439.445 630.677ZM150.057 454.125C144.78 451.167 139.985 448.433 135.123 445.829C134.552 445.521 133.472 445.714 132.833 446.063C130.022 447.584 127.285 449.245 124.521 450.855C121.498 452.615 118.475 454.37 115.109 456.328C120.387 459.276 125.197 462 130.048 464.636C130.537 464.901 131.42 464.917 131.887 464.646C137.814 461.271 143.705 457.818 150.057 454.125ZM461.989 151.881C457.08 149.125 452.597 146.698 448.224 144.105C446.665 143.183 445.476 143.276 443.985 144.193C440.603 146.276 437.118 148.188 433.69 150.188C431.575 151.422 429.477 152.693 427.098 154.115C432.303 157.037 437.108 159.75 441.938 162.407C442.39 162.657 443.175 162.813 443.564 162.589C449.616 159.125 455.631 155.589 461.989 151.875V151.881ZM127.55 938.573C131.368 941.099 134.993 943.167 138.23 945.735C141.289 948.167 143.855 948.547 147.382 946.443C152.094 943.636 157.231 941.552 162.545 938.985C158.961 936.589 155.553 934.672 152.572 932.235C149.081 929.381 145.995 928.948 141.975 931.412C137.518 934.146 132.594 936.115 127.545 938.584L127.55 938.573ZM541.557 338.99C536.477 335.651 531.818 332.563 527.117 329.542C526.701 329.276 525.912 329.214 525.465 329.427C519.253 332.391 513.071 335.417 506.521 338.605C511.856 342.131 516.853 345.438 521.715 348.651C528.28 345.453 534.638 342.355 541.557 338.985V338.99ZM326.289 36.3285C330.777 39.3128 334.943 41.9326 338.927 44.7972C340.777 46.1253 342.21 46.2347 344.252 45.1514C349.737 42.2555 355.373 39.641 361.321 36.7347C356.35 33.4691 351.763 30.4014 347.098 27.4639C346.532 27.1045 345.426 27.1462 344.776 27.4482C338.751 30.2712 332.777 33.193 326.289 36.3285ZM115.218 36.7503C110.335 33.5003 105.91 30.4691 101.365 27.6305C100.622 27.167 99.1986 27.2295 98.3467 27.6149C93.4691 29.8389 88.6694 32.2347 83.849 34.5785C82.7374 35.1201 81.6465 35.7087 80.2804 36.4066C85.1424 39.6201 89.5992 42.6045 94.108 45.5107C94.6794 45.8805 95.656 46.2139 96.1702 45.9743C102.414 43.0264 108.611 39.9691 115.213 36.7451L115.218 36.7503ZM228.374 636.724C223.829 633.693 219.559 630.917 215.383 628.011C213.84 626.938 212.562 626.87 210.895 627.766C207.544 629.558 204.064 631.11 200.646 632.771C198.355 633.886 196.075 635.021 193.426 636.323C198.412 639.625 202.994 642.693 207.622 645.688C208.09 645.99 208.962 646.115 209.445 645.886C215.679 642.927 221.871 639.886 228.374 636.724ZM294.125 754.032C299.408 756.99 304.265 759.756 309.189 762.386C309.745 762.683 310.825 762.401 311.47 762.042C315.916 759.542 320.316 756.953 324.726 754.381C326.082 753.589 327.422 752.771 329.022 751.818C324.014 748.995 319.438 746.375 314.81 743.844C314.134 743.474 313.007 743.151 312.451 743.459C306.441 746.823 300.504 750.323 294.125 754.032ZM215.861 151.86C210.734 148.99 206.022 146.282 201.217 143.745C200.511 143.375 199.218 143.568 198.449 143.98C195.395 145.589 192.439 147.381 189.452 149.125C186.741 150.709 184.039 152.323 181.027 154.11C186.263 157.052 191.047 159.797 195.904 162.412C196.47 162.714 197.54 162.495 198.179 162.157C200.921 160.693 203.597 159.105 206.277 157.532C209.378 155.714 212.469 153.87 215.855 151.865L215.861 151.86ZM396.149 454.11C390.846 451.146 386.046 448.443 381.21 445.792C380.769 445.552 379.984 445.459 379.584 445.688C373.528 449.131 367.512 452.636 361.175 456.308C366.442 459.256 371.315 462.006 376.218 464.698C376.644 464.933 377.418 464.99 377.818 464.761C383.797 461.339 389.739 457.849 396.149 454.11ZM373.637 938.558C377.735 941.276 381.626 943.532 385.127 946.287C387.745 948.349 389.843 948.37 392.7 946.792C397.728 944.021 403.006 941.693 408.616 938.964C404.575 936.282 400.809 934.026 397.329 931.386C394.7 929.391 392.513 929.016 389.48 930.735C384.483 933.563 379.184 935.855 373.637 938.553V938.558ZM83.0075 751.844C77.8754 748.959 73.1588 746.23 68.3488 743.683C67.6371 743.308 66.3281 743.495 65.5542 743.907C62.3492 745.615 59.2429 747.511 56.1055 749.344C53.5446 750.839 50.9941 752.355 48.08 754.073C53.368 757.021 58.1832 759.735 63.0349 762.37C63.5127 762.631 64.3802 762.625 64.8477 762.36C70.7746 758.985 76.6651 755.537 83.0023 751.849L83.0075 751.844ZM49.3475 338.985C46.3555 336.995 43.457 335.532 41.1403 333.427C36.4757 329.193 31.889 328.646 26.8244 332.526C25.9569 333.193 24.7934 333.464 23.7908 333.959C20.7677 335.453 17.7497 336.974 14.4149 338.641C19.4379 341.964 24.035 345.016 28.6632 348.021C29.084 348.297 29.8476 348.48 30.2527 348.287C36.5224 345.287 42.7557 342.214 49.3527 338.985H49.3475ZM474.487 636.724C469.646 633.506 465.152 630.427 460.535 627.552C459.797 627.094 458.363 627.235 457.48 627.625C453.849 629.235 450.301 631.047 446.728 632.792C444.442 633.907 442.167 635.032 439.502 636.344C444.562 639.677 449.154 642.74 453.803 645.724C454.265 646.021 455.138 646.089 455.631 645.855C461.792 642.927 467.916 639.927 474.487 636.73V636.724ZM260.725 338.453C260.876 338.73 260.896 338.828 260.954 338.865C264.179 341.037 267.597 342.974 270.594 345.427C273.992 348.214 276.963 348.62 280.874 346.224C285.383 343.464 290.359 341.464 295.445 338.974C290.474 335.677 285.887 332.61 281.248 329.615C280.77 329.308 279.877 329.214 279.378 329.453C273.14 332.407 266.938 335.433 260.72 338.448L260.725 338.453ZM164.025 884.172C160.135 881.599 156.654 879.183 153.039 876.995C152.203 876.49 150.722 876.381 149.834 876.766C145.798 878.521 141.861 880.511 137.902 882.438C135.929 883.396 133.975 884.407 131.705 885.553C135.44 888.037 138.796 890.308 142.214 892.495C142.686 892.797 143.538 892.891 144.042 892.683C150.566 889.954 157.065 887.157 164.03 884.177L164.025 884.172ZM115.281 403.099C118.709 405.016 121.644 406.506 124.412 408.261C126.324 409.474 127.856 409.875 129.965 408.469C132.391 406.849 135.186 405.782 137.799 404.438C140.91 402.834 144.001 401.193 147.465 399.375C143.138 396.953 139.237 394.74 135.3 392.599C134.853 392.355 134.069 392.271 133.659 392.506C127.659 395.912 121.701 399.381 115.275 403.099H115.281ZM213.336 97.1253C209.16 94.792 205.326 92.6201 201.451 90.5264C200.921 90.2399 200.028 90.016 199.581 90.266C193.519 93.667 187.504 97.1618 181.125 100.834C184.476 102.729 187.499 104.224 190.283 106.078C192.366 107.469 194.002 107.287 196.117 106.115C201.685 103.026 207.404 100.198 213.331 97.1253H213.336ZM393.568 399.396C389.859 397.318 386.457 395.646 383.319 393.568C381.179 392.146 379.6 392.37 377.527 393.657C372.338 396.875 366.993 399.844 361.373 403.11C363.772 404.448 365.964 405.334 367.757 406.735C371.554 409.714 374.956 409.657 379.054 407.006C383.501 404.131 388.451 402.032 393.573 399.396H393.568ZM197.535 583.235C198.942 584.209 199.919 584.912 200.921 585.573C203.591 587.323 206.183 590.25 208.978 590.459C211.876 590.677 214.972 588.256 217.975 586.985C221.808 585.365 225.642 583.74 229.886 581.943C225.725 579.198 222.006 576.704 218.224 574.297C217.741 573.99 216.837 573.907 216.328 574.146C210.183 577.058 204.074 580.052 197.529 583.235H197.535ZM510.562 285.547C514.385 288.058 517.751 290.328 521.195 292.485C521.715 292.808 522.66 292.844 523.242 292.605C528.992 290.224 534.711 287.756 540.436 285.313C541.178 284.995 541.911 284.667 542.986 284.193C538.908 281.495 535.246 279.026 531.522 276.667C530.992 276.328 530.005 276.23 529.449 276.49C523.273 279.386 517.138 282.375 510.567 285.547H510.562ZM427.254 100.818C430.334 102.584 433.248 104.063 435.949 105.865C438.193 107.365 440.011 107.36 442.406 106.006C447.86 102.917 453.527 100.198 459.438 97.1514C455.184 94.7607 451.309 92.542 447.377 90.4378C446.821 90.141 445.819 90.1357 445.273 90.4378C439.346 93.7816 433.471 97.2139 427.254 100.818ZM326.507 697.094C322.347 694.761 318.534 692.563 314.649 690.495C314.025 690.162 312.924 690.12 312.332 690.448C306.4 693.771 300.53 697.203 294.292 700.802C298.286 703.037 301.953 705.115 305.652 707.136C306.021 707.339 306.665 707.386 307.028 707.204C313.397 703.933 319.744 700.615 326.507 697.094ZM377.688 885.49C380.519 887.36 383.22 888.808 385.506 890.745C388.025 892.881 390.197 892.907 393.116 891.49C398.539 888.86 404.185 886.693 410.086 884.188C406.024 881.49 402.31 878.985 398.544 876.568C398.066 876.261 397.173 876.167 396.669 876.407C390.42 879.344 384.202 882.36 377.688 885.495V885.49ZM80.4414 697.099C76.2132 694.73 72.39 692.547 68.515 690.469C67.9436 690.162 66.9463 690.068 66.4164 690.365C60.4324 693.724 54.5004 697.183 48.1995 700.818C52.246 703.078 55.9081 705.151 59.6065 707.162C59.9649 707.36 60.6142 707.334 60.9934 707.141C67.3618 703.886 73.7094 700.584 80.4362 697.105L80.4414 697.099ZM50.8799 284.235C46.6931 281.474 42.9324 278.922 39.0729 276.526C38.5379 276.193 37.447 276.401 36.7665 276.703C33.4681 278.198 30.2267 279.808 26.9698 281.386C24.2272 282.714 21.4897 284.058 18.4405 285.542C21.0482 287.276 23.4428 288.547 25.4427 290.276C28.3983 292.828 31.0631 293.047 34.6264 291.203C39.7118 288.568 45.166 286.636 50.8799 284.23V284.235ZM475.915 581.954C473.697 580.474 471.614 579.474 470.025 577.959C465.651 573.782 461.355 573.709 456.311 576.927C452.452 579.391 448.094 581.073 443.585 583.292C447.471 585.855 450.899 588.151 454.379 590.37C454.774 590.62 455.512 590.636 455.958 590.443C462.467 587.709 468.955 584.922 475.91 581.954H475.915ZM296.878 284.23C293.923 282.245 291.18 280.709 288.801 278.724C285.752 276.177 283.014 276.146 279.586 278.105C274.838 280.813 269.795 282.995 264.533 285.568C268.376 288.11 271.82 290.422 275.311 292.657C275.706 292.912 276.454 292.912 276.911 292.724C283.435 289.985 289.939 287.193 296.878 284.235V284.23Z" fill="none"/>
<path d="M262.32 2C271.249 7.06771 280.183 12.1354 289.44 17.3906C275.233 39.4844 261.057 61.526 246.669 83.9062C255.603 88.9323 264.444 93.901 273.462 98.974C264.548 110.922 255.806 122.641 246.871 134.609C252.331 137.698 257.634 140.693 263.26 143.875C242.659 171.953 222.192 199.859 201.721 227.76C201.456 227.62 201.186 227.484 200.921 227.344C200.848 226.896 200.61 226.401 200.724 226.01C207.835 201.542 214.962 177.078 222.135 152.63C222.582 151.109 222.286 150.307 220.863 149.531C214.712 146.182 208.63 142.714 202.251 139.141C208.323 124.781 214.349 110.536 220.463 96.0833C214.401 92.6615 208.489 89.3177 202.454 85.9062C207.196 75.3646 211.85 65.0208 216.51 54.6823C224.166 37.6927 231.828 20.7083 239.474 3.71354C239.713 3.17708 239.812 2.57292 239.978 2.00521C242.056 2.00521 244.134 2.00521 246.212 2.00521C243.661 7.68229 241.105 13.3594 238.555 19.0365C235.49 25.8542 232.41 32.6615 229.361 39.4844C227.522 43.5937 225.818 47.7604 223.896 51.8281C219.793 60.5052 215.538 69.1094 211.502 77.8177C211.108 78.6719 211.404 80.3125 212.017 81.0781C213.746 83.2292 215.798 85.1198 217.736 87.099C219.128 88.5208 220.333 88.5677 221.47 86.724C223.195 83.9219 225.044 81.2031 226.79 78.4115C234.498 66.0938 242.165 53.7552 249.889 41.4479C255.364 32.724 260.834 24 266.459 15.3698C267.862 13.2187 267.135 12.0365 265.415 10.8906C263.332 9.50521 261.14 8.26562 259.135 6.77604C257.161 5.29687 255.364 3.59896 253.489 2C256.434 2 259.374 2 262.32 2Z" fill="#FAFF47"/>
<path d="M509.575 2C510.084 2.54167 510.495 3.25 511.113 3.60417C518.562 7.83333 526.047 12.0104 533.517 16.2031C534.114 16.5365 534.691 16.9115 535.516 17.4167C521.284 39.5521 507.103 61.599 492.751 83.9115C501.701 88.9375 510.49 93.8698 519.549 98.9531C510.661 110.87 501.888 122.63 492.958 134.604C498.501 137.734 503.82 140.745 509.342 143.865C488.673 172.042 468.145 200.031 447.616 228.016C447.32 227.859 447.024 227.703 446.723 227.552C446.847 226.854 446.915 226.135 447.107 225.458C454.047 201.484 460.966 177.505 467.984 153.552C468.622 151.38 468.415 150.234 466.233 149.099C460.259 145.984 454.447 142.557 448.338 139.13C454.41 124.771 460.436 110.521 466.55 96.0677C460.561 92.6927 454.707 89.3906 448.582 85.9375C449.611 83.599 450.582 81.3229 451.6 79.0677C462.997 53.7865 474.404 28.5104 485.8 3.22917C485.977 2.83854 486.065 2.41146 486.2 2.00521C488.107 2.00521 490.008 2.00521 491.914 2.00521C491.79 2.58854 491.764 3.22396 491.52 3.75521C485.452 17.0573 479.38 30.3594 473.261 43.6406C468.082 54.8854 462.82 66.0885 457.667 77.349C457.273 78.2083 457.002 79.7448 457.465 80.276C460.067 83.2865 462.914 86.0833 465.968 89.2552C466.571 88.349 466.763 88.0573 466.95 87.7656C474.71 75.5885 482.507 63.4375 490.211 51.224C497.592 39.526 504.874 27.7604 512.225 16.0417C513.949 13.2917 513.783 12.3594 511.092 10.5677C507.929 8.45833 504.755 6.35938 501.664 4.14062C501.01 3.67188 500.693 2.72917 500.22 2.00521C503.337 2.00521 506.454 2.00521 509.57 2.00521L509.575 2Z" fill="#FAFF47"/>
<path d="M0.000311632 519.708C0.587284 519.245 1.40281 518.906 1.73526 518.302C6.07781 510.401 10.3476 502.464 14.6435 494.536C17.2822 489.667 19.9366 484.807 22.7416 479.656C37.0263 489.099 51.15 498.432 65.5802 507.974C49.68 529.099 33.8733 550.099 17.9783 571.219C26.5491 576.891 34.9537 582.453 43.6129 588.182C33.8785 599.406 24.2688 610.49 14.472 621.781C19.708 625.276 24.7934 628.661 30.1073 632.208C26.4868 636.458 23.0221 640.531 19.5574 644.599C13.5994 651.594 7.65173 658.589 1.67812 665.568C1.18984 666.141 0.561312 666.594 -0.00488281 667.104C-0.00488281 632.036 -0.00488281 596.964 -0.00488281 561.896C4.40001 556.151 8.86203 550.443 13.189 544.641C17.4692 538.901 21.5832 533.031 25.8427 527.276C31.5929 519.505 37.4211 511.797 43.1973 504.047C44.1635 502.75 44.1843 501.547 42.7921 500.432C38.6833 497.141 34.6213 493.792 30.5229 490.49C28.9334 489.208 27.2919 487.99 25.5674 486.661C24.8817 487.542 24.3207 488.094 23.9571 488.755C20.2898 495.328 16.6693 501.927 13.0124 508.505C9.35551 515.083 5.70381 521.661 1.95862 528.188C1.66773 528.693 0.665201 528.792 -0.00488281 529.078C-0.00488281 525.953 -0.00488281 522.828 -0.00488281 519.703L0.000311632 519.708Z" fill="#FAFF47"/>
<path d="M93.3027 113.583C102.866 87.7865 112.429 61.9896 122.07 35.9844C115.639 31.7135 109.255 27.474 102.606 23.0573C106.18 15.9844 109.707 8.99479 113.239 2C130.209 2 147.174 2 164.145 2C160.727 6.10417 157.329 10.2188 153.891 14.3021C151.829 16.7448 149.709 19.1406 147.387 21.8177C152.571 25.2708 157.641 28.651 162.971 32.2031C161.438 34.0521 160.051 35.7812 158.612 37.4635C137.414 62.2865 116.215 87.1042 95.0065 111.917C94.5078 112.495 93.8897 112.969 93.3235 113.495L93.3027 113.583Z" fill="#FAFF47"/>
<path d="M410.361 2C405.593 7.59896 400.83 13.1927 396.061 18.7917C395.282 19.7083 394.492 20.6198 393.469 21.8125C398.679 25.2865 403.749 28.6719 409.115 32.25C386.155 59.1615 363.336 85.9115 340.517 112.656C340.304 112.521 340.091 112.385 339.878 112.25C341.893 106.802 343.904 101.354 345.929 95.9115C352.984 76.9219 360.006 57.9271 367.138 38.9688C367.975 36.75 367.85 35.5521 365.642 34.2031C359.965 30.7292 354.5 26.9167 348.724 23.0885C349.405 21.6615 350.023 20.2656 350.719 18.9115C353.285 13.901 355.887 8.90625 358.443 3.88542C358.729 3.32292 358.781 2.63542 358.936 2.00521C376.078 2.00521 393.22 2.00521 410.361 2.00521V2Z" fill="#FAFF47"/>
<path d="M561 368.667C560.403 369.057 559.676 369.333 559.229 369.854C548.518 382.349 537.849 394.875 527.143 407.37C525.579 409.193 523.865 410.891 521.574 412.573C521.574 411.745 521.341 410.828 521.611 410.099C529.091 389.964 536.623 369.854 544.134 349.734C545.547 345.943 546.918 342.135 548.357 338.198C541.859 333.891 535.459 329.646 528.862 325.281C535.963 311.432 542.986 297.734 550.18 283.698C544.518 279.917 538.877 276.151 532.987 272.224C535.475 267.589 537.906 263.036 540.363 258.5C546.767 246.698 553.177 234.901 559.598 223.104C560.034 222.302 560.528 221.531 560.995 220.75V232.208C560.465 232.875 559.826 233.479 559.421 234.214C553.754 244.411 548.071 254.604 542.555 264.88C542.092 265.74 542.388 267.479 542.991 268.354C544.555 270.615 546.617 272.521 548.227 274.755C549.661 276.74 550.653 276.146 551.785 274.615C554.045 271.568 556.258 268.484 558.611 265.505C559.167 264.807 560.19 264.479 560.995 263.979V368.667H561Z" fill="#FAFF47"/>
<path d="M16.6222 2C21.1518 4.65104 25.6657 7.32812 30.2161 9.9375C34.4859 12.3854 38.7921 14.7656 43.3944 17.349C29.1356 39.5156 14.9704 61.5469 0.592167 83.901C9.57856 88.9531 18.4143 93.9271 27.3799 98.9687C18.4507 110.943 9.70322 122.667 0.789556 134.62C6.25411 137.698 11.5628 140.687 17.2196 143.865C11.3914 151.729 5.69311 159.417 0 167.104C0 126.828 0 86.5469 0 46.2708C0.675278 45.6719 1.52717 45.1927 1.98947 44.4583C8.01503 34.9792 13.9627 25.4479 19.9934 15.9687C21.692 13.3073 21.6297 12.4844 18.9961 10.7031C16.5703 9.0625 14.0718 7.52083 11.7343 5.76042C10.2902 4.67708 9.09547 3.26562 7.79167 2C10.7369 2 13.677 2 16.6222 2Z" fill="#FAFF47"/>
<path d="M500.225 2C500.698 2.72396 501.015 3.66667 501.669 4.13542C504.76 6.34896 507.934 8.45312 511.097 10.5625C513.788 12.3542 513.959 13.2865 512.23 16.0365C504.879 27.7552 497.602 39.5208 490.215 51.2187C482.507 63.4271 474.71 75.5833 466.955 87.7604C466.768 88.0521 466.57 88.3385 465.973 89.25C462.919 86.0781 460.072 83.2812 457.47 80.2708C457.007 79.7396 457.278 78.2031 457.672 77.3437C462.825 66.0885 468.087 54.8802 473.266 43.6354C479.385 30.3542 485.452 17.0521 491.524 3.75C491.769 3.21875 491.789 2.58854 491.919 2C494.688 2 497.462 2 500.23 2L500.225 2Z" fill="#7D04D7"/>
<path d="M253.489 2C255.364 3.59896 257.162 5.29687 259.135 6.76562C261.14 8.25521 263.333 9.49479 265.415 10.8802C267.14 12.026 267.862 13.2083 266.46 15.3594C260.834 23.9844 255.364 32.7135 249.889 41.4375C242.165 53.7448 234.498 66.0833 226.79 78.401C225.044 81.1875 223.195 83.9115 221.47 86.7135C220.333 88.5625 219.123 88.5104 217.736 87.0885C215.798 85.1094 213.746 83.2187 212.017 81.0677C211.404 80.3073 211.108 78.6615 211.502 77.8073C215.544 69.099 219.798 60.4948 223.896 51.8177C225.818 47.75 227.522 43.5833 229.361 39.474C232.41 32.651 235.49 25.8437 238.555 19.026C241.111 13.3542 243.666 7.67708 246.217 2C248.643 2 251.063 2 253.489 2Z" fill="#7D04D7"/>
<path d="M0 529.084C0.670083 528.797 1.67261 528.698 1.9635 528.193C5.70869 521.667 9.36039 515.089 13.0173 508.511C16.6742 501.933 20.2999 495.334 23.962 488.761C24.3308 488.099 24.8918 487.547 25.5723 486.667C27.2968 487.995 28.9383 489.214 30.5278 490.495C34.6262 493.797 38.6882 497.146 42.797 500.438C44.1891 501.552 44.1632 502.756 43.2022 504.052C37.426 511.802 31.5978 519.511 25.8476 527.282C21.5881 533.037 17.4793 538.907 13.1939 544.646C8.86692 550.443 4.40489 556.151 0 561.896C0 550.959 0 540.021 0 529.084Z" fill="#7D04D7"/>
<path d="M0 444.708C1.56872 440.333 3.22056 435.989 4.68539 431.583C13.1679 406.104 21.6193 380.614 30.0187 355.109C30.5745 353.422 31.3796 352.531 33.073 351.797C38.3766 349.494 43.5294 346.854 49.2901 344.083C48.1681 347.161 47.2279 349.786 46.2565 352.401C38.6571 372.859 31.0108 393.297 23.5256 413.797C22.8296 415.703 23.1568 417.979 23.0114 420.088L23.9256 420.323C15.9469 429.317 7.97347 438.317 0 447.312C0 446.442 0 445.578 0 444.708Z" fill="#FAFF47"/>
<path d="M481.525 2.00033C470.455 26.542 459.386 51.0837 448.322 75.6305C446.898 78.7868 445.543 81.9743 444.114 85.1253C443.886 85.6305 443.512 86.1826 443.055 86.4535C437.845 89.516 432.609 92.5316 426.941 95.2607C428.822 91.0524 430.692 86.8389 432.583 82.6357C443.647 58.0941 454.742 33.5628 465.749 8.99512C466.72 6.82845 467.946 5.19824 470.112 4.17741C471.24 3.64616 472.19 2.7347 473.219 1.99512C475.987 1.99512 478.761 1.99512 481.53 1.99512L481.525 2.00033Z" fill="#FAFF47"/>
<path d="M235.309 2C226.192 22.2917 217.066 42.5729 207.96 62.8698C204.615 70.3333 201.321 77.8177 197.981 85.2812C197.784 85.7187 197.441 86.1875 197.041 86.4219C191.769 89.5052 186.476 92.5521 180.533 95.9844C183.001 90.4531 185.156 85.5833 187.343 80.7292C198.262 56.5156 209.17 32.2969 220.162 8.11458C220.754 6.81771 222.016 5.76042 223.133 4.78125C224.322 3.73438 225.704 2.91667 226.998 2C229.766 2 232.54 2 235.309 2Z" fill="#FAFF47"/>
<path d="M561 211.896C557.987 217.224 554.896 222.511 551.977 227.886C544.17 242.266 536.44 256.683 528.669 271.078C528.436 271.511 528.114 272.016 527.698 272.219C522.15 274.953 516.577 277.641 510.333 280.672C514.213 273.474 517.719 266.953 521.252 260.443C532.809 239.136 544.419 217.849 555.883 196.49C557.104 194.214 558.818 193.011 561 192.104V211.896Z" fill="#FAFF47"/>
<path d="M7.79167 2C9.09547 3.26562 10.2902 4.67708 11.7343 5.76042C14.0718 7.52083 16.5703 9.0625 18.9961 10.7031C21.6297 12.4844 21.692 13.3073 19.9934 15.9687C13.9627 25.4479 8.02022 34.9792 1.98947 44.4583C1.52717 45.1927 0.675278 45.6719 0 46.2708C0 31.5156 0 16.7552 0 2C2.62319 2 5.20483 2 7.79167 2Z" fill="#7D04D7"/>
<path d="M561 263.979C560.194 264.479 559.166 264.802 558.615 265.505C556.262 268.479 554.049 271.562 551.79 274.614C550.657 276.145 549.66 276.739 548.232 274.755C546.621 272.521 544.559 270.614 542.996 268.354C542.393 267.479 542.097 265.739 542.559 264.88C548.081 254.604 553.759 244.411 559.426 234.213C559.831 233.479 560.47 232.875 561 232.208V263.979Z" fill="#7D04D7"/>
<path d="M108.564 2C105.172 8.5 101.791 15 98.383 21.4948C98.0766 22.0781 97.7389 22.8229 97.2143 23.0833C91.6718 25.8281 86.0878 28.4844 79.8389 31.4948C81.7608 27.7031 83.3295 24.5781 84.9242 21.4687C87.8851 15.6979 90.8771 9.9375 93.8223 4.15625C94.1599 3.48958 94.3054 2.72396 94.5391 2.00521C99.2141 2.00521 103.889 2.00521 108.564 2.00521V2Z" fill="#FAFF47"/>
<path d="M354.261 2C350.916 8.73958 347.576 15.4792 344.21 22.2083C344.034 22.5625 343.675 22.9062 343.322 23.0833C337.764 25.7969 332.19 28.4844 325.879 31.5312C329.338 24.776 332.455 18.75 335.515 12.6927C337.307 9.15104 339.01 5.5625 340.751 2C345.254 2 349.753 2 354.256 2L354.261 2Z" fill="#FAFF47"/>
<path d="M15.7963 483.099C10.5343 492.869 5.26717 502.645 0 512.416C0 505.125 0 497.833 0 490.541C5.26197 488.093 10.5239 485.646 15.7859 483.192L15.7963 483.099Z" fill="#FAFF47"/>
<path d="M561 142.625C559.753 143.672 558.507 144.719 557.338 145.703C558.527 142.006 559.764 138.146 561 134.292V142.625Z" fill="#FAFF47"/>
<path d="M56.2302 338.234C49.7372 333.922 43.3376 329.672 36.7043 325.271C43.774 311.484 50.7969 297.786 58.0223 283.698C52.376 279.932 46.7296 276.166 40.7976 272.213C57.1029 242.156 73.3615 212.192 89.7812 181.927C104.097 191.39 118.216 200.729 132.63 210.26C116.772 231.328 101.017 252.271 85.049 273.484C93.5679 279.135 101.973 284.713 110.658 290.474C100.939 301.682 91.3291 312.765 81.5324 324.062C86.8255 327.593 91.9057 330.979 97.1781 334.494C74.1355 361.505 51.2228 388.359 28.3101 415.213L27.7803 414.859C37.2394 389.375 46.6984 363.89 56.2251 338.234H56.2302ZM110.678 204.625C110.117 203.812 109.733 202.89 109.053 202.328C104.409 198.463 99.7285 194.64 94.9964 190.885C93.5316 189.724 92.1914 189.484 91.0486 191.651C88.1917 197.088 85.1373 202.416 82.1401 207.781C76.9093 217.146 71.6474 226.494 66.4217 235.864C61.0819 245.448 55.7264 255.026 50.5112 264.677C50.0541 265.521 50.2203 267.067 50.6982 267.963C51.4566 269.38 52.6876 270.557 53.7837 271.776C57.8353 276.25 57.9392 276.312 61.5753 271.448C72.2655 257.146 82.8726 242.776 93.5264 228.442C98.1546 222.213 102.856 216.036 107.463 209.791C108.621 208.224 109.536 206.474 110.678 204.625Z" fill="#FAFF47"/>
<path d="M453.864 710.646C454.088 709.859 454.254 709.052 454.534 708.286C463.043 685.281 471.505 662.255 480.164 639.307C481.213 636.531 480.652 635.281 478.278 633.817C472.762 630.416 467.432 626.713 461.817 623C468.944 609.099 476.003 595.323 483.14 581.395C477.359 577.552 471.686 573.776 465.931 569.948C482.267 539.812 498.505 509.864 514.889 479.646C529.194 489.104 543.307 498.432 557.748 507.979C541.869 529.073 526.114 550.01 510.162 571.203C518.764 576.911 527.173 582.489 535.775 588.198C526.025 599.432 516.411 610.515 506.629 621.786C511.907 625.297 516.93 628.64 522.301 632.213C499.742 658.651 477.312 684.937 454.882 711.218C454.545 711.031 454.202 710.838 453.864 710.651V710.646ZM536.248 502.312C535.469 501.442 534.835 500.536 534.015 499.864C529.402 496.083 524.758 492.343 520.099 488.625C517.714 486.724 517.211 486.895 515.715 489.619C509.518 500.916 503.31 512.213 497.077 523.489C490.044 536.203 482.984 548.906 475.915 561.599C474.865 563.484 474.834 565.104 476.419 566.776C478.2 568.656 479.831 570.682 481.457 572.703C482.59 574.109 483.545 573.958 484.543 572.599C484.953 572.041 485.436 571.541 485.846 570.984C493.077 561.088 500.256 551.156 507.533 541.291C516.603 529 525.745 516.771 534.851 504.505C535.303 503.895 535.672 503.218 536.248 502.312Z" fill="#FAFF47"/>
<path d="M197.171 445.995C193.067 453.464 137.165 528.563 134.76 529.151C142.162 503.547 149.47 478.271 156.821 452.854C149.979 449 143.294 445.234 136.412 441.359C142.479 427.021 148.478 412.839 154.618 398.339C148.65 394.964 142.733 391.62 136.593 388.151C150.655 356.958 164.675 325.875 178.819 294.5C193.789 302.88 208.552 311.146 223.632 319.589C209.378 341.75 195.202 363.792 180.819 386.146C189.764 391.177 198.537 396.12 207.596 401.214C198.74 413.089 190.008 424.797 181.032 436.833C186.481 439.927 191.831 442.964 197.171 446V445.995ZM201.737 315.557C201.14 314.896 200.641 314.089 199.934 313.589C195.005 310.094 190.003 306.693 185.073 303.193C182.44 301.318 181.785 301.365 180.435 304.255C177.146 311.297 173.931 318.375 170.69 325.438C166.103 335.427 161.527 345.422 156.924 355.406C153.231 363.422 149.45 371.401 145.871 379.469C145.414 380.5 145.466 382.344 146.11 383.172C147.897 385.484 150.104 387.479 152.172 389.573C153.439 390.854 154.597 390.714 155.569 389.188C159.054 383.719 162.566 378.266 166.02 372.776C172.092 363.12 178.118 353.438 184.185 343.776C189.156 335.865 194.174 327.984 199.145 320.073C200.012 318.698 200.771 317.25 201.737 315.557Z" fill="#FAFF47"/>
<path d="M426.9 386.151C435.887 391.198 444.624 396.104 453.704 401.203C444.79 413.141 435.97 424.943 427.082 436.849C432.453 439.88 437.85 442.922 443.486 446.104C422.927 474.135 402.523 501.958 382.119 529.776C381.833 529.682 381.543 529.589 381.257 529.495C381.402 528.422 381.413 527.312 381.709 526.286C388.254 503.552 394.835 480.828 401.411 458.104C402.433 454.573 401.345 451.918 398.149 450.141C393.017 447.276 387.901 444.396 382.467 441.349C388.545 427.047 394.575 412.859 400.741 398.349C394.762 394.964 388.851 391.625 382.685 388.135C396.741 356.937 410.746 325.859 424.88 294.484C439.861 302.865 454.623 311.125 469.723 319.568C455.444 341.766 441.232 363.859 426.9 386.146V386.151ZM399.91 391.021C400.643 390.229 401.442 389.583 401.967 388.76C404.009 385.563 405.93 382.292 407.951 379.083C413.977 369.5 420.028 359.932 426.075 350.365C432.822 339.693 439.565 329.021 446.343 318.37C448.13 315.562 448.026 314.823 445.278 312.911C440.39 309.521 435.492 306.146 430.625 302.724C428.822 301.458 427.664 301.844 426.786 303.833C425.456 306.844 424.023 309.802 422.641 312.786C417.691 323.458 412.714 334.115 407.806 344.807C402.424 356.521 397.141 368.276 391.718 379.969C391.064 381.375 391.028 382.26 392.165 383.37C394.082 385.234 395.832 387.281 397.692 389.208C398.284 389.818 399.011 390.297 399.91 391.026V391.021Z" fill="#FAFF47"/>
<path d="M302.301 338.234C295.829 333.932 289.435 329.687 282.786 325.271C289.892 311.411 296.941 297.656 304.109 283.687C298.374 279.869 292.775 276.14 286.884 272.213C303.195 242.156 319.453 212.192 335.878 181.927C350.194 191.396 364.302 200.729 378.717 210.265C362.838 231.369 347.083 252.307 331.146 273.484C339.707 279.166 348.101 284.739 356.755 290.484C346.994 301.729 337.421 312.76 327.604 324.073C332.829 327.541 337.899 330.911 343.291 334.489C320.212 361.531 297.263 388.422 274.309 415.312C274.148 415.229 273.981 415.146 273.82 415.067C283.295 389.515 292.77 363.963 302.307 338.239L302.301 338.234ZM338.528 188.744C337.187 191.026 336.06 192.854 335.026 194.729C328.352 206.849 321.723 218.994 315.033 231.104C308.888 242.229 302.629 253.291 296.588 264.474C296.037 265.494 296.198 267.463 296.842 268.463C298.328 270.755 300.359 272.687 302.094 274.828C303.46 276.51 304.431 276.588 305.823 274.672C314.804 262.307 323.874 250 332.959 237.708C340.714 227.213 348.527 216.765 356.324 206.307C357.472 204.765 357.399 203.599 355.726 202.396C353.42 200.729 351.285 198.823 349.057 197.052C345.649 194.343 342.221 191.656 338.528 188.75V188.744Z" fill="#FAFF47"/>
<path d="M276.214 632.214C253.198 659.193 230.384 685.938 207.564 712.677C207.362 712.532 207.164 712.386 206.962 712.24C210.92 701.568 214.883 690.901 218.836 680.229C224.01 666.25 229.127 652.25 234.404 638.313C235.163 636.313 234.69 635.459 233.043 634.407C227.293 630.735 221.636 626.907 215.735 622.995C222.852 609.099 229.906 595.328 237.048 581.391C231.277 577.552 225.615 573.782 219.829 569.927C236.186 539.776 252.418 509.865 268.807 479.651C283.128 489.12 297.252 498.464 311.656 507.99C295.808 529.042 280.048 549.979 264.07 571.203C272.609 576.865 281.014 582.433 289.683 588.183C279.944 599.417 270.334 610.5 260.548 621.787C265.836 625.302 270.911 628.683 276.214 632.209V632.214ZM237.095 574.042C237.801 573.302 238.508 572.693 239.053 571.964C246.284 562.276 253.52 552.594 260.704 542.87C270.256 529.938 279.757 516.969 289.304 504.037C290.38 502.584 290.395 501.469 288.889 500.287C284.141 496.552 279.404 492.808 274.749 488.953C271.544 486.297 271.378 486.297 269.368 489.953C265.041 497.823 260.662 505.662 256.294 513.511C252.683 520 249.047 526.479 245.448 532.979C240.092 542.657 234.721 552.323 229.48 562.063C228.986 562.985 228.903 564.709 229.443 565.506C231.23 568.136 233.365 570.526 235.422 572.964C235.781 573.391 236.388 573.599 237.09 574.042H237.095Z" fill="#FAFF47"/>
<path d="M420.059 264.01C422.552 254.109 425.046 244.208 427.539 234.307C432.915 212.979 438.317 191.656 443.621 170.307C444.172 168.089 445.018 166.651 447.205 165.542C452.129 163.052 456.825 160.109 462.227 157C460.851 161.911 459.677 166.245 458.425 170.557C452.831 189.854 447.174 209.135 441.694 228.464C441.226 230.104 441.943 232.062 441.99 233.88C442.011 234.62 441.922 235.531 441.512 236.083C434.536 245.458 427.497 254.786 420.48 264.125C420.339 264.089 420.194 264.052 420.054 264.016L420.059 264.01Z" fill="#FAFF47"/>
<path d="M108.144 566.218C116.153 534.38 124.179 502.547 132.131 470.692C132.516 469.151 133.518 468.838 134.635 468.224C138.801 465.922 142.884 463.479 147.003 461.099C147.897 460.583 148.821 460.109 150.302 459.302C149.335 462.718 148.525 465.645 147.684 468.557C141.694 489.281 135.71 510 129.69 530.713C129.139 532.614 128.765 534.375 130.08 536.156C130.345 536.515 130.178 537.5 129.856 537.932C122.781 547.448 115.655 556.922 108.538 566.406C108.408 566.343 108.279 566.281 108.149 566.213L108.144 566.218Z" fill="#FAFF47"/>
<path d="M541.521 344.026C538.445 352.307 535.589 360.005 532.732 367.708C527.007 383.145 521.241 398.562 515.642 414.041C515.086 415.578 515.58 417.489 515.548 419.224C515.538 419.828 515.621 420.625 515.289 421.01C507.539 429.979 499.736 438.901 491.514 447.619C493.373 442.031 495.238 436.448 497.093 430.854C505.435 405.692 513.787 380.536 522.088 355.359C522.691 353.536 523.522 352.484 525.459 351.677C530.711 349.484 535.765 346.807 541.521 344.021V344.026Z" fill="#FAFF47"/>
<path d="M174.009 264.536C176.861 253.01 179.676 241.479 182.564 229.963C187.644 209.698 192.787 189.453 197.846 169.182C198.225 167.661 198.843 166.807 200.313 166.026C205.503 163.271 210.536 160.224 216.177 156.974C214.775 161.927 213.549 166.359 212.271 170.776C206.755 189.838 201.228 208.896 195.685 227.953C195.093 229.989 194.61 231.901 195.883 233.953C196.199 234.468 195.623 235.833 195.093 236.541C188.107 245.916 181.052 255.244 174.019 264.588V264.536H174.009Z" fill="#FAFF47"/>
<path d="M66.4261 143.073C66.4832 142.427 66.4261 141.74 66.6183 141.141C73.262 121.063 79.9265 100.99 86.5857 80.9118C89.6141 71.7816 92.6736 62.667 95.6241 53.5107C96.263 51.5264 97.1149 50.2764 99.229 49.3962C104.408 47.2399 109.389 44.6045 115.077 41.8545C113.716 45.6618 112.574 48.9535 111.363 52.2191C104.008 72.042 96.6629 91.8701 89.2453 111.672C88.4246 113.865 88.1856 115.839 89.879 117.881C82.3678 126.433 74.9034 134.927 67.4442 143.422C67.1014 143.302 66.7637 143.188 66.4209 143.068L66.4261 143.073Z" fill="#FAFF47"/>
<path d="M311.309 145.38C317.542 126.562 323.77 107.739 330.003 88.9215C333.951 77.0049 337.951 65.1038 341.847 53.1715C342.444 51.3382 343.301 50.2393 345.208 49.432C350.444 47.2028 355.513 44.5882 361.227 41.8486C359.664 46.1247 358.292 49.9059 356.895 53.6768C349.706 73.083 342.527 92.4945 335.281 111.88C334.491 114 334.216 115.901 335.998 117.817C327.853 127.135 319.77 136.375 311.693 145.614C311.563 145.536 311.438 145.463 311.309 145.385V145.38Z" fill="#FAFF47"/>
<path d="M354.276 565.948C357.902 551.599 361.543 537.25 365.154 522.896C369.423 505.927 373.683 488.958 377.895 471.974C378.347 470.146 378.997 468.969 380.913 468.026C385.557 465.734 389.941 462.922 394.435 460.328C394.938 460.036 395.479 459.812 396.377 459.375C394.57 465.682 392.871 471.656 391.141 477.625C385.962 495.51 380.763 513.385 375.631 531.281C375.314 532.385 375.013 534.042 375.574 534.755C377.277 536.927 375.849 538.167 374.716 539.667C368.67 547.687 362.65 555.724 356.609 563.75C355.991 564.568 355.315 565.344 354.666 566.141C354.536 566.078 354.406 566.01 354.276 565.948Z" fill="#FAFF47"/>
<path d="M295.413 344.052C292.234 352.635 289.294 360.578 286.344 368.52C280.791 383.463 275.238 398.411 269.675 413.349C268.833 415.604 268.174 417.828 270.085 420.093C261.971 429.375 253.904 438.604 245.832 447.838C245.708 447.771 245.578 447.698 245.453 447.63C247.562 441.25 249.666 434.864 251.78 428.489C259.966 403.812 268.189 379.151 276.282 354.442C276.859 352.677 278.027 352.396 279.326 351.786C284.489 349.359 289.611 346.849 295.418 344.052H295.413Z" fill="#FAFF47"/>
<path d="M171.827 299.182C168.929 305.615 166.041 312.052 163.137 318.484C153.169 340.589 143.138 362.661 133.31 384.828C132.183 387.37 130.786 389.104 128.396 390.385C124.002 392.745 119.727 395.318 114.854 398.115C115.447 396.63 115.784 395.693 116.189 394.786C128.635 367.151 141.107 339.526 153.517 311.87C154.66 309.328 156.13 307.437 158.706 306.12C163.054 303.901 167.194 301.281 171.422 298.828C171.557 298.948 171.692 299.068 171.827 299.182Z" fill="#FAFF47"/>
<path d="M197.659 577.489C202.443 568.666 207.227 559.838 212.011 551.015C222.374 531.906 232.716 512.781 243.152 493.713C243.838 492.458 245.09 491.281 246.367 490.619C251.245 488.088 256.237 485.781 261.909 483.036C258.699 488.953 255.873 494.172 253.042 499.39C240.861 521.849 228.618 544.276 216.583 566.817C215.32 569.182 213.731 570.453 211.492 571.489C206.968 573.573 202.516 575.812 198.033 577.984L197.659 577.489Z" fill="#FAFF47"/>
<path d="M328.283 185.849C327 188.474 325.805 191.146 324.419 193.713C310.757 218.932 297.023 244.114 283.455 269.39C282.38 271.396 281.118 272.552 279.17 273.453C274.391 275.661 269.695 278.036 264.246 280.692C267.321 274.979 270.017 269.916 272.755 264.875C285.034 242.25 297.345 219.646 309.578 197C310.742 194.843 312.134 193.281 314.43 192.291C319.105 190.276 323.676 188.015 328.288 185.859L328.283 185.849Z" fill="#FAFF47"/>
<path d="M18.5547 279.922C24.8244 268.343 31.0941 256.765 37.369 245.192C46.2515 228.817 55.108 212.427 64.0736 196.093C64.8008 194.765 66.1254 193.526 67.4708 192.823C72.2964 190.307 77.2519 188.036 82.7009 185.411C81.9477 186.942 81.4542 188.052 80.8776 189.114C66.4059 215.771 51.8874 242.401 37.53 269.119C36.3249 271.359 34.8652 272.713 32.6784 273.713C28.0501 275.833 23.4842 278.099 18.8975 280.307C18.7832 280.177 18.6742 280.052 18.5599 279.922H18.5547Z" fill="#FAFF47"/>
<path d="M417.919 299.141C414.73 306.219 411.54 313.297 408.351 320.375C398.752 341.688 389.064 362.959 379.641 384.349C378.28 387.443 376.431 389.381 373.569 390.881C369.46 393.037 365.502 395.479 361.056 397.479C363.274 392.563 365.492 387.646 367.71 382.724C372.083 373.016 376.447 363.302 380.826 353.594C387.397 339.026 393.973 324.464 400.565 309.907C400.876 309.214 401.214 308.349 401.796 307.995C407.016 304.86 412.294 301.823 417.556 298.761C417.675 298.886 417.795 299.016 417.919 299.141Z" fill="#FAFF47"/>
<path d="M443.699 577.568C451.262 563.635 458.825 549.708 466.383 535.771C473.9 521.911 481.432 508.052 488.896 494.167C489.883 492.328 491.145 491.047 493.067 490.177C497.841 488.016 502.526 485.672 507.934 483.078C505.524 487.573 503.466 491.443 501.378 495.292C488.496 519.057 475.567 542.797 462.784 566.615C461.511 568.984 459.932 570.479 457.548 571.542C452.992 573.573 448.54 575.833 444.047 578C443.933 577.859 443.819 577.714 443.704 577.573L443.699 577.568Z" fill="#FAFF47"/>
<path d="M212.983 102.406C209.398 110.891 206.131 118.599 202.879 126.318C201.202 130.302 199.565 134.297 197.872 138.276C197.654 138.786 197.295 139.365 196.843 139.63C191.509 142.766 186.148 145.844 180.18 149.292C183.795 140.724 187.145 132.797 190.491 124.87C192.174 120.885 193.763 116.859 195.592 112.943C196.127 111.802 197.155 110.656 198.251 110.052C202.859 107.516 207.58 105.182 212.983 102.406Z" fill="#FAFF47"/>
<path d="M114.651 450.724C119.783 438.604 124.91 426.48 130.074 414.375C130.328 413.782 130.765 413.099 131.305 412.818C136.338 410.172 141.413 407.604 147.096 404.698C143.86 412.381 140.888 419.433 137.922 426.479C136.006 431.032 134.11 435.589 132.162 440.12C131.876 440.787 131.466 441.578 130.884 441.922C125.617 445.047 120.298 448.084 114.994 451.151C114.88 451.011 114.771 450.87 114.657 450.729L114.651 450.724Z" fill="#FAFF47"/>
<path d="M459.049 102.422C456.498 108.469 454.213 113.859 451.948 119.255C449.299 125.563 446.675 131.88 444.016 138.182C443.798 138.703 443.455 139.302 442.993 139.573C437.663 142.714 432.297 145.797 426.235 149.307C428.427 144.135 430.308 139.714 432.183 135.286C435.393 127.708 438.551 120.115 441.85 112.578C442.286 111.589 443.258 110.63 444.224 110.109C448.899 107.578 453.662 105.198 459.049 102.422Z" fill="#FAFF47"/>
<path d="M541.905 290.109C536.129 301.443 530.363 312.781 524.556 324.099C524.27 324.656 523.74 325.214 523.184 325.49C517.766 328.167 512.323 330.786 506.375 333.661C506.926 332.344 507.237 331.438 507.668 330.589C513.185 319.802 518.707 309.016 524.285 298.26C524.691 297.474 525.407 296.635 526.181 296.292C530.919 294.193 535.708 292.219 540.497 290.24C540.918 290.068 541.463 290.177 541.947 290.161L541.905 290.109Z" fill="#FAFF47"/>
<path d="M50.0897 289.464C46.3756 296.714 42.9109 303.453 39.4618 310.209C37.1399 314.756 34.8648 319.323 32.5324 323.865C32.2364 324.443 31.8 325.099 31.2546 325.37C25.7693 328.094 20.2424 330.74 13.9883 333.771C15.9622 329.849 17.588 326.594 19.2451 323.354C23.3902 315.266 27.4679 307.146 31.7741 299.141C32.548 297.703 34.0908 296.401 35.592 295.688C40.1631 293.521 44.8848 291.672 50.0949 289.464H50.0897Z" fill="#FAFF47"/>
<path d="M260.008 333.797C264.522 324.974 268.688 316.833 272.859 308.687C274.635 305.218 276.375 301.729 278.245 298.312C278.708 297.468 279.471 296.567 280.313 296.192C285.289 293.984 290.328 291.927 295.985 289.552C295.392 290.843 295.065 291.64 294.676 292.411C289.284 302.979 283.892 313.552 278.469 324.104C278.183 324.661 277.659 325.224 277.103 325.494C271.68 328.172 266.226 330.786 260.008 333.797Z" fill="#FAFF47"/>
<path d="M392.664 405.01C390.908 409.505 389.225 414.026 387.386 418.489C384.352 425.859 381.225 433.192 378.109 440.526C377.89 441.047 377.527 441.63 377.065 441.901C371.771 444.994 366.447 448.036 360.442 451.489C362.364 446.937 364.011 443.052 365.652 439.156C368.951 431.333 372.281 423.521 375.527 415.677C376.259 413.911 377.272 412.703 379.07 411.859C383.688 409.692 388.191 407.286 392.736 404.974L392.658 405.015L392.664 405.01Z" fill="#FAFF47"/>
<path d="M150.058 454.12C143.705 457.818 137.819 461.266 131.887 464.641C131.415 464.911 130.532 464.896 130.049 464.63C125.192 461.99 120.382 459.271 115.109 456.323C118.475 454.365 121.499 452.609 124.522 450.849C127.285 449.24 130.023 447.578 132.833 446.057C133.472 445.714 134.552 445.521 135.124 445.823C139.986 448.427 144.78 451.161 150.058 454.12Z" fill="#FAFF47"/>
<path d="M461.989 151.881C455.631 155.594 449.616 159.125 443.564 162.594C443.174 162.818 442.39 162.662 441.938 162.412C437.107 159.75 432.302 157.037 427.098 154.12C429.482 152.698 431.575 151.428 433.689 150.193C437.118 148.193 440.603 146.282 443.985 144.198C445.47 143.282 446.665 143.183 448.223 144.11C452.602 146.709 457.08 149.131 461.989 151.886V151.881Z" fill="#FAFF47"/>
<path d="M541.552 338.989C534.633 342.359 528.275 345.458 521.709 348.656C516.847 345.443 511.85 342.135 506.516 338.609C513.066 335.422 519.252 332.396 525.46 329.432C525.901 329.219 526.696 329.281 527.112 329.547C531.813 332.568 536.472 335.656 541.552 338.995V338.989Z" fill="#FAFF47"/>
<path d="M326.289 36.3285C332.777 33.1931 338.756 30.2713 344.776 27.4483C345.425 27.1463 346.532 27.1046 347.098 27.464C351.763 30.4067 356.349 33.4744 361.32 36.7348C355.378 39.641 349.742 42.2556 344.251 45.1515C342.205 46.2296 340.771 46.1254 338.927 44.7973C334.943 41.9327 330.777 39.3129 326.289 36.3285Z" fill="#FAFF47"/>
<path d="M115.218 36.7495C108.61 39.9735 102.419 43.0308 96.175 45.9787C95.6607 46.2183 94.6842 45.885 94.1128 45.5152C89.604 42.6037 85.1472 39.6245 80.2852 36.411C81.6513 35.7079 82.7369 35.1245 83.8537 34.5829C88.6742 32.2339 93.4739 29.8433 98.3514 27.6193C99.2033 27.2287 100.627 27.1714 101.369 27.635C105.915 30.4735 110.34 33.51 115.223 36.7547L115.218 36.7495Z" fill="#FAFF47"/>
<path d="M215.86 151.859C212.468 153.864 209.383 155.713 206.281 157.526C203.596 159.094 200.921 160.682 198.183 162.151C197.544 162.495 196.469 162.713 195.908 162.406C191.051 159.797 186.262 157.052 181.031 154.104C184.049 152.318 186.745 150.708 189.457 149.12C192.438 147.375 195.399 145.588 198.453 143.974C199.227 143.568 200.521 143.37 201.222 143.739C206.027 146.271 210.738 148.984 215.865 151.854L215.86 151.859Z" fill="#FAFF47"/>
<path d="M396.149 454.11C389.739 457.849 383.797 461.334 377.818 464.761C377.418 464.99 376.649 464.933 376.218 464.698C371.309 462.011 366.437 459.256 361.175 456.308C367.512 452.636 373.532 449.131 379.584 445.688C379.989 445.459 380.768 445.553 381.21 445.792C386.046 448.438 390.845 451.146 396.149 454.11Z" fill="#FAFF47"/>
<path d="M49.3421 338.99C42.7452 342.219 36.5067 345.292 30.2422 348.292C29.837 348.485 29.0786 348.302 28.6527 348.026C24.0244 345.021 19.4325 341.964 14.4043 338.646C17.7443 336.98 20.7571 335.459 23.7803 333.964C24.7828 333.469 25.9464 333.193 26.8138 332.532C31.8836 328.651 36.4651 329.198 41.1297 333.433C43.4464 335.537 46.3501 337 49.3369 338.99H49.3421Z" fill="#FAFF47"/>
<path d="M260.715 338.458C266.933 335.442 273.135 332.416 279.373 329.463C279.872 329.229 280.765 329.317 281.243 329.625C285.882 332.619 290.469 335.687 295.44 338.984C290.354 341.468 285.378 343.468 280.869 346.234C276.953 348.63 273.987 348.218 270.589 345.437C267.592 342.984 264.174 341.041 260.949 338.875C260.891 338.833 260.871 338.739 260.72 338.463L260.715 338.458Z" fill="#FAFF47"/>
<path d="M115.27 403.099C121.695 399.38 127.653 395.912 133.653 392.505C134.063 392.271 134.847 392.36 135.294 392.599C139.231 394.74 143.127 396.948 147.46 399.375C143.995 401.193 140.904 402.834 137.793 404.438C135.18 405.781 132.385 406.849 129.959 408.469C127.85 409.875 126.318 409.474 124.407 408.261C121.638 406.505 118.703 405.016 115.275 403.099H115.27Z" fill="#FAFF47"/>
<path d="M213.335 97.1248C207.403 100.198 201.689 103.026 196.121 106.114C194.007 107.286 192.376 107.469 190.288 106.078C187.503 104.224 184.48 102.724 181.13 100.833C187.509 97.1612 193.524 93.6664 199.586 90.2654C200.032 90.0154 200.921 90.2393 201.456 90.5258C205.326 92.6248 209.159 94.7914 213.341 97.1248H213.335Z" fill="#FAFF47"/>
<path d="M393.563 399.396C388.441 402.031 383.491 404.13 379.044 407.005C374.946 409.656 371.543 409.713 367.746 406.734C365.954 405.328 363.762 404.443 361.362 403.109C366.983 399.844 372.328 396.88 377.517 393.656C379.59 392.37 381.169 392.146 383.309 393.567C386.446 395.646 389.854 397.317 393.557 399.396H393.563Z" fill="#FAFF47"/>
<path d="M510.562 285.546C517.138 282.375 523.267 279.385 529.444 276.489C529.999 276.229 530.986 276.333 531.516 276.666C535.241 279.026 538.898 281.494 542.98 284.192C541.905 284.661 541.173 284.994 540.43 285.312C534.706 287.755 528.987 290.224 523.236 292.604C522.654 292.843 521.709 292.807 521.19 292.484C517.751 290.328 514.38 288.062 510.557 285.546H510.562Z" fill="#FAFF47"/>
<path d="M427.259 100.818C433.482 97.2188 439.357 93.7813 445.278 90.4375C445.824 90.1302 446.821 90.1354 447.382 90.4375C451.314 92.5417 455.184 94.7656 459.444 97.151C453.532 100.193 447.865 102.917 442.411 106.005C440.022 107.359 438.198 107.365 435.954 105.865C433.253 104.063 430.339 102.583 427.259 100.818Z" fill="#FAFF47"/>
<path d="M50.8846 284.234C45.1707 286.641 39.7218 288.573 34.6312 291.208C31.073 293.052 28.4031 292.833 25.4474 290.281C23.4476 288.552 21.0529 287.281 18.4453 285.547C21.4945 284.057 24.2319 282.719 26.9746 281.391C30.2315 279.813 33.478 278.203 36.7713 276.708C37.4466 276.401 38.5374 276.193 39.0776 276.531C42.9319 278.927 46.6979 281.479 50.8846 284.24V284.234Z" fill="#FAFF47"/>
<path d="M296.883 284.23C289.943 287.193 283.44 289.985 276.915 292.719C276.458 292.912 275.71 292.907 275.316 292.651C271.825 290.417 268.381 288.11 264.537 285.563C269.799 282.99 274.843 280.813 279.591 278.099C283.024 276.141 285.756 276.172 288.806 278.719C291.179 280.704 293.927 282.24 296.883 284.224V284.23Z" fill="#FAFF47"/>
<path d="M541.951 290.16L541.822 290C541.822 290 541.889 290.098 541.9 290.104C541.91 290.104 541.951 290.16 541.951 290.16Z" fill="#FAFF47"/>
<path d="M392.741 404.974V405.082C392.741 405.082 392.658 405.02 392.658 405.015C392.658 405.01 392.741 404.974 392.741 404.974Z" fill="#FAFF47"/>
<path d="M15.7851 483.192C15.7438 483.161 15.7025 483.135 15.6611 483.104C15.7076 483.104 15.749 483.104 15.7955 483.104C15.7955 483.099 15.7851 483.192 15.7851 483.192Z" fill="#FAFF47"/>
<path d="M93.3234 113.489L93.4164 113.593C93.3802 113.582 93.3441 113.577 93.3027 113.572C93.3027 113.577 93.3234 113.489 93.3234 113.489Z" fill="#FAFF47"/>
<path d="M174.014 264.583C173.967 264.567 173.921 264.547 173.874 264.531C173.895 264.578 173.921 264.624 173.941 264.671C173.962 264.624 173.983 264.578 174.003 264.531L174.008 264.583H174.014Z" fill="#FAFF47"/>
<path d="M328.289 185.854C328.32 185.786 328.341 185.703 328.393 185.651C328.419 185.625 328.497 185.64 328.554 185.64C328.466 185.708 328.377 185.781 328.289 185.849V185.854Z" fill="#FAFF47"/>
<path d="M110.673 204.63C109.535 206.479 108.616 208.224 107.458 209.797C102.85 216.042 98.1543 222.219 93.5209 228.448C82.8671 242.781 72.26 257.146 61.5699 271.453C57.9338 276.318 57.8299 276.255 53.7782 271.781C52.677 270.568 51.4511 269.385 50.6927 267.969C50.2148 267.073 50.0486 265.526 50.5057 264.682C55.7261 255.031 61.0764 245.453 66.4163 235.87C71.6419 226.5 76.9039 217.151 82.1347 207.787C85.1319 202.422 88.1862 197.094 91.0432 191.656C92.1807 189.49 93.5261 189.729 94.9909 190.891C99.7231 194.646 104.403 198.469 109.047 202.333C109.728 202.896 110.112 203.818 110.673 204.63Z" fill="#7D04D7"/>
<path d="M536.248 502.308C535.671 503.219 535.303 503.891 534.851 504.5C525.745 516.766 516.603 528.995 507.533 541.287C500.256 551.151 493.077 561.084 485.846 570.98C485.441 571.537 484.953 572.037 484.543 572.594C483.545 573.954 482.589 574.105 481.457 572.698C479.831 570.677 478.2 568.651 476.418 566.771C474.834 565.099 474.865 563.48 475.915 561.594C482.984 548.901 490.049 536.198 497.077 523.485C503.315 512.209 509.517 500.912 515.714 489.615C517.21 486.891 517.714 486.719 520.099 488.62C524.758 492.339 529.402 496.079 534.014 499.86C534.835 500.532 535.469 501.438 536.248 502.308Z" fill="#7D04D7"/>
<path d="M201.737 315.557C200.77 317.25 200.012 318.698 199.145 320.073C194.168 327.979 189.156 335.864 184.185 343.776C178.117 353.432 172.092 363.119 166.02 372.776C162.565 378.265 159.054 383.718 155.568 389.187C154.597 390.713 153.433 390.854 152.171 389.573C150.104 387.479 147.896 385.484 146.109 383.172C145.47 382.343 145.413 380.5 145.87 379.468C149.449 371.401 153.231 363.422 156.924 355.406C161.526 345.422 166.103 335.427 170.689 325.437C173.931 318.375 177.151 311.297 180.434 304.255C181.785 301.364 182.439 301.317 185.073 303.192C190.002 306.692 194.999 310.093 199.934 313.588C200.646 314.093 201.144 314.896 201.737 315.557Z" fill="#7D04D7"/>
<path d="M399.905 391.021C399.001 390.291 398.274 389.812 397.687 389.203C395.827 387.276 394.082 385.229 392.16 383.364C391.017 382.255 391.059 381.37 391.713 379.963C397.136 368.271 402.419 356.515 407.8 344.802C412.709 334.114 417.691 323.453 422.636 312.781C424.017 309.797 425.456 306.838 426.781 303.828C427.659 301.838 428.817 301.453 430.62 302.719C435.487 306.14 440.385 309.515 445.273 312.906C448.021 314.812 448.125 315.552 446.338 318.364C439.564 329.015 432.817 339.687 426.069 350.359C420.018 359.927 413.971 369.5 407.946 379.078C405.925 382.286 404.003 385.562 401.962 388.755C401.437 389.578 400.637 390.224 399.905 391.015V391.021Z" fill="#7D04D7"/>
<path d="M338.528 188.744C342.216 191.651 345.644 194.338 349.057 197.047C351.285 198.817 353.42 200.724 355.726 202.39C357.394 203.593 357.472 204.76 356.324 206.302C348.522 216.76 340.714 227.213 332.959 237.703C323.874 249.994 314.805 262.297 305.823 274.666C304.431 276.583 303.465 276.505 302.094 274.823C300.359 272.687 298.328 270.755 296.842 268.458C296.193 267.463 296.037 265.489 296.588 264.468C302.634 253.291 308.888 242.224 315.033 231.099C321.724 218.989 328.352 206.843 335.027 194.724C336.06 192.843 337.193 191.021 338.528 188.739V188.744Z" fill="#7D04D7"/>
<path d="M237.095 574.042C236.394 573.599 235.786 573.386 235.428 572.964C233.371 570.526 231.236 568.136 229.449 565.505C228.909 564.708 228.986 562.984 229.485 562.063C234.726 552.323 240.097 542.656 245.453 532.979C249.053 526.479 252.689 520.005 256.299 513.511C260.662 505.662 265.046 497.823 269.373 489.953C271.384 486.297 271.55 486.302 274.755 488.953C279.404 492.807 284.146 496.552 288.894 500.287C290.395 501.469 290.385 502.583 289.31 504.037C279.762 516.969 270.261 529.938 260.709 542.87C253.525 552.594 246.289 562.276 239.058 571.964C238.513 572.693 237.807 573.302 237.1 574.042H237.095Z" fill="#7D04D7"/>
</g>
</g>
<defs>
<clipPath id="clip0_146_2705">
<rect width="558" height="556" fill="white"/>
</clipPath>
<clipPath id="clip1_146_2705">
<rect width="561" height="1000" fill="white" transform="translate(0 2)"/>
</clipPath>
</defs>
</svg>
