<svg width="558" height="556" viewBox="0 0 558 556" fill="none" xmlns="http://www.w3.org/2000/svg">
<g clip-path="url(#clip0_146_2701)">
<g clip-path="url(#clip1_146_2701)">
<path d="M557.719 48.2803V97.2603C556.709 97.7403 555.569 98.0403 554.719 98.7203C546.559 105.19 538.439 111.72 530.329 118.25C529.879 118.61 529.619 119.19 528.849 120.25H557.719V121.25C556.059 122.25 554.249 123.08 552.749 124.28C505.509 162.01 458.309 199.77 411.109 237.55C410.459 238.07 410.049 238.88 409.089 240.14H437.889C387.819 280.22 338.659 319.57 289.499 358.92C289.589 359.24 289.689 359.55 289.779 359.87H316.779C316.869 360.18 316.959 360.49 317.059 360.81C267.969 400.11 218.879 439.41 169.789 478.71C173.229 479.58 176.199 479.58 179.169 479.58C182.339 479.58 185.499 479.54 188.669 479.58C191.469 479.62 194.259 479.75 197.059 479.85C148.149 520.04 99.0488 559.11 50.1888 598.46C50.3488 598.86 50.5087 599.27 50.6687 599.67H78.2988C76.2188 601.4 75.1087 602.37 73.9587 603.28C42.8887 628.17 11.8388 653.07 -19.2612 677.92C-26.5112 683.74 -33.9313 689.36 -41.2812 695.07C-41.2812 679.08 -41.2812 663.08 -41.2812 647.09C-27.7312 636.32 -14.1812 625.56 -0.631248 614.78C5.30875 610.06 11.2188 605.31 17.1488 600.57C17.0788 600.25 17.0087 599.94 16.9487 599.62H-9.97125L-10.2412 598.57C38.8088 559.3 87.8587 520.03 136.899 480.76C132.199 479.89 127.769 479.97 123.349 479.86C118.859 479.75 114.319 480.26 108.729 479.38C158.719 439.36 207.779 400.08 256.839 360.81L256.519 359.83H229.529C229.449 359.53 229.369 359.23 229.289 358.93C278.339 319.67 327.379 280.41 376.429 241.14C376.319 240.77 376.209 240.4 376.099 240.02H349.309C373.649 219.4 398.219 199.81 422.729 180.12C447.259 160.42 471.959 140.94 496.349 121.07C496.179 120.73 496.019 120.39 495.849 120.05H467.939C470.649 117.82 472.379 116.36 474.149 114.95C486.109 105.37 498.059 95.7903 510.039 86.2403C525.919 73.5803 541.819 60.9403 557.709 48.2903L557.719 48.2803Z" fill="#FAFF47"/>
<path d="M-41.2812 815.03C-41.2812 799.04 -41.2812 783.04 -41.2812 767.05C-22.2812 751.88 -3.27125 736.72 15.7188 721.54C16.2588 721.11 16.5888 720.43 17.3688 719.4C12.1888 719.4 7.69875 719.47 3.20875 719.38C-1.10125 719.29 -5.47125 719.79 -10.8412 718.9C38.9888 679.01 87.9088 639.85 136.829 600.69C127.609 599.53 118.679 599.93 109.799 599.46L109.669 598.48C158.609 559.3 207.549 520.12 256.499 480.95C256.399 480.56 256.309 480.17 256.209 479.78H229.479C229.429 479.44 229.369 479.1 229.319 478.76C278.369 439.5 327.419 400.23 376.459 360.97C376.309 360.62 376.159 360.27 376.019 359.92H349.409C349.289 359.61 349.169 359.29 349.059 358.98C398.159 319.66 447.269 280.35 496.369 241.03C496.209 240.69 496.049 240.35 495.889 240H468.039C470.269 238.08 471.569 236.89 472.949 235.79C489.719 222.36 506.489 208.92 523.289 195.53C534.739 186.4 546.249 177.34 557.739 168.26V216.24C548.219 223.85 538.689 231.46 529.169 239.07C529.309 239.46 529.449 239.84 529.579 240.23H557.739V241.23C556.339 241.99 554.799 242.55 553.579 243.53C529.369 262.86 505.199 282.24 481.009 301.6C457.999 320.02 434.969 338.43 411.969 356.86C411.069 357.58 410.319 358.47 408.699 360.07H437.839C387.859 400.08 338.769 439.38 289.669 478.68C294.619 479.6 299.099 479.59 303.579 479.6C308.079 479.61 312.599 479.38 317.909 480C268.019 519.94 219.019 559.18 170.019 598.41C170.179 598.82 170.349 599.22 170.509 599.63H197.089C197.159 599.92 197.219 600.21 197.289 600.51C148.229 639.79 99.1788 679.06 50.1188 718.34C54.8688 719.23 59.3087 719.15 63.7387 719.25C68.2387 719.35 72.7987 718.77 78.0387 719.79C76.3687 721.19 75.3787 722.05 74.3587 722.87C44.5787 746.71 14.8088 770.56 -15.0012 794.36C-23.7112 801.31 -32.5212 808.14 -41.2812 815.03Z" fill="#FAFF47"/>
<path d="M557.719 168.24C546.229 177.33 534.719 186.39 523.269 195.51C506.469 208.9 489.699 222.34 472.929 235.77C471.559 236.87 470.249 238.06 468.019 239.98H495.869C496.029 240.32 496.189 240.66 496.349 241.01C447.249 280.33 398.139 319.64 349.039 358.96C349.159 359.27 349.279 359.59 349.389 359.9H375.999C376.149 360.25 376.299 360.6 376.439 360.95C327.389 400.21 278.339 439.48 229.299 478.74C229.349 479.08 229.409 479.42 229.459 479.76H256.189C256.289 480.15 256.379 480.54 256.479 480.93C207.539 520.11 158.599 559.29 109.649 598.46L109.779 599.44C118.659 599.91 127.579 599.52 136.809 600.67C87.8892 639.83 38.9792 678.99 -10.8608 718.88C-5.49078 719.78 -1.12078 719.28 3.18922 719.36C7.67922 719.45 12.1692 719.38 17.3492 719.38C16.5692 720.4 16.2392 721.09 15.6992 721.52C-3.29078 736.71 -22.2908 751.87 -41.3008 767.03C-41.3008 743.04 -41.3008 719.05 -41.3008 695.05C-33.9508 689.34 -26.5308 683.72 -19.2608 677.92C11.8392 653.07 42.8892 628.17 73.9592 603.28C75.1092 602.36 76.2192 601.4 78.2992 599.67H50.6692C50.5092 599.27 50.3492 598.86 50.1892 598.46C99.0592 559.11 148.149 520.03 197.059 479.85C194.259 479.76 191.469 479.62 188.669 479.58C185.499 479.53 182.339 479.58 179.169 479.58C176.199 479.58 173.219 479.58 169.789 478.71C218.879 439.41 267.969 400.11 317.059 360.81C316.969 360.5 316.879 360.19 316.779 359.87H289.779C289.689 359.55 289.589 359.24 289.499 358.92C338.659 319.57 387.819 280.22 437.889 240.14H409.089C410.049 238.89 410.459 238.07 411.109 237.55C458.299 199.77 505.509 162.01 552.749 124.28C554.249 123.08 556.059 122.25 557.719 121.25V168.23V168.24Z" fill="#35055A"/>
<path d="M557.719 48.28C541.829 60.93 525.929 73.57 510.049 86.23C498.069 95.78 486.119 105.36 474.159 114.94C472.389 116.36 470.659 117.82 467.949 120.04H495.859C496.029 120.38 496.189 120.72 496.359 121.06C471.969 140.92 447.259 160.41 422.739 180.11C398.239 199.79 373.659 219.39 349.319 240.01H376.109C376.219 240.38 376.329 240.75 376.439 241.13C327.389 280.39 278.349 319.65 229.299 358.92C229.379 359.22 229.459 359.52 229.539 359.82H256.529L256.849 360.8C207.789 400.08 158.729 439.35 108.739 479.37C114.329 480.25 118.869 479.75 123.359 479.85C127.789 479.95 132.219 479.87 136.909 480.75C87.8588 520.02 38.8088 559.29 -10.2313 598.56L-9.96125 599.61H16.9588C17.0288 599.93 17.0987 600.24 17.1587 600.56C11.2287 605.3 5.31875 610.05 -0.62125 614.77C-14.1813 625.55 -27.7312 636.31 -41.2812 647.08C-41.2812 623.09 -41.2812 599.1 -41.2812 575.1C-40.0412 574.31 -38.7212 573.61 -37.5812 572.7C-0.51125 543.07 36.5387 513.42 73.5788 483.76C74.9088 482.69 76.1487 481.51 77.4287 480.39C77.3287 480.07 77.2188 479.74 77.1188 479.42H49.1087C99.1587 439.36 148.209 400.09 197.269 360.83C197.129 360.48 196.999 360.14 196.859 359.79H170.229L169.869 358.81C218.959 319.51 268.049 280.2 317.139 240.9C316.989 240.54 316.849 240.19 316.699 239.83H288.559C338.719 199.68 387.879 160.32 437.049 120.96C436.919 120.63 436.789 120.31 436.659 119.98H408.719C410.019 118.77 410.559 118.18 411.179 117.69C458.239 80.03 505.299 42.36 552.379 4.73004C554.019 3.42004 555.929 2.43004 557.709 1.29004V48.27L557.719 48.28Z" fill="#35055A"/>
<path d="M-41.2812 815.031C-32.5212 808.141 -23.7112 801.31 -15.0012 794.36C14.8088 770.55 44.5787 746.7 74.3587 722.87C75.3787 722.05 76.3587 721.19 78.0387 719.79C72.7887 718.77 68.2387 719.36 63.7387 719.25C59.3087 719.15 54.8688 719.231 50.1188 718.341C99.1788 679.061 148.229 639.79 197.289 600.51C197.219 600.22 197.159 599.93 197.089 599.63H170.509C170.349 599.22 170.179 598.82 170.019 598.41C219.019 559.18 268.019 519.94 317.909 480C312.599 479.38 308.079 479.61 303.579 479.6C299.099 479.59 294.619 479.6 289.669 478.68C338.759 439.38 387.849 400.08 437.839 360.07H408.699C410.319 358.47 411.069 357.57 411.969 356.86C434.979 338.43 457.999 320.02 481.009 301.6C505.199 282.24 529.369 262.86 553.579 243.53C554.799 242.56 556.349 241.99 557.739 241.23V288.21C556.639 288.94 555.469 289.59 554.439 290.41C526.989 312.35 499.549 334.31 472.129 356.28C471.019 357.17 470.049 358.22 469.019 359.2L469.269 360.17H495.999C496.039 360.47 496.089 360.77 496.129 361.08C447.099 400.32 398.069 439.57 349.039 478.81C349.189 479.19 349.349 479.57 349.499 479.95H376.009C376.119 480.27 376.219 480.59 376.329 480.91C327.309 520.15 278.289 559.401 229.279 598.641C229.379 598.971 229.469 599.311 229.569 599.641H256.109C256.239 600.021 256.369 600.391 256.499 600.771C207.489 640.021 158.479 679.26 109.469 718.51C109.579 718.83 109.699 719.16 109.809 719.48H136.449C136.579 719.83 136.709 720.181 136.839 720.531C87.7487 759.831 38.6688 799.12 -10.4212 838.42C-10.2912 838.76 -10.1612 839.1 -10.0312 839.44H16.9588C17.0388 839.72 17.1187 840.01 17.1987 840.29C-2.31125 855.86 -21.8013 871.43 -41.2812 887C-41.2812 863.01 -41.2812 839.021 -41.2812 815.021V815.031Z" fill="#35055A"/>
<path d="M-41.2812 887C-21.8013 871.43 -2.31125 855.86 17.1688 840.29C17.0888 840.01 17.0087 839.72 16.9287 839.44H-10.0613C-10.1913 839.1 -10.3213 838.76 -10.4513 838.42C38.6388 799.12 87.7187 759.83 136.809 720.53C136.679 720.18 136.549 719.83 136.419 719.48H109.779C109.669 719.16 109.549 718.83 109.439 718.51C158.449 679.26 207.459 640.02 256.469 600.77C256.339 600.39 256.209 600.02 256.079 599.64H229.539C229.439 599.31 229.349 598.97 229.249 598.64C278.269 559.4 327.289 520.15 376.299 480.91C376.189 480.59 376.089 480.27 375.979 479.95H349.469C349.319 479.57 349.159 479.19 349.009 478.81C398.039 439.57 447.069 400.32 496.099 361.08C496.059 360.78 496.009 360.48 495.969 360.17H469.239L468.989 359.2C470.019 358.22 470.989 357.17 472.099 356.28C499.519 334.31 526.959 312.35 554.409 290.41C555.439 289.59 556.609 288.94 557.709 288.21V336.19C552.869 340 547.959 343.71 543.219 347.64C538.579 351.49 533.479 354.83 528.779 359.79C538.459 359.97 547.279 359.73 556.079 359.99L556.309 361.09C507.409 400.25 458.499 439.4 409.599 478.56L409.859 479.64H436.769C436.829 479.97 436.889 480.29 436.949 480.62C387.909 519.87 338.869 559.12 289.829 598.38C289.919 598.72 290.019 599.06 290.109 599.4H316.549C316.689 599.8 316.829 600.19 316.969 600.59C267.939 639.85 218.919 679.1 169.889 718.36C170.059 718.72 170.219 719.09 170.389 719.45H197.019C197.119 719.74 197.229 720.04 197.329 720.33C148.209 759.65 99.0988 798.98 49.1588 838.96C59.3488 839.27 68.3387 838.91 78.3887 839.23C76.8287 840.66 76.2587 841.24 75.6387 841.74C60.6887 853.7 45.7087 865.63 30.7887 877.63C25.3587 882 20.0787 886.54 14.7287 891.01H-41.2812C-41.2812 889.67 -41.2812 888.33 -41.2812 887Z" fill="#FAFF47"/>
<path d="M557.719 1.30027C555.939 2.44027 554.028 3.43027 552.388 4.74027C505.298 42.3703 458.249 80.0303 411.189 117.7C410.569 118.19 410.029 118.78 408.729 119.99H436.669C436.799 120.32 436.929 120.64 437.059 120.97C387.889 160.33 338.719 199.69 288.569 239.84H316.708C316.858 240.2 316.998 240.55 317.148 240.91C268.058 280.21 218.969 319.52 169.879 358.82L170.239 359.8H196.869C197.009 360.15 197.139 360.49 197.279 360.84C148.229 400.11 99.1685 439.37 49.1185 479.43H77.1285C77.2285 479.75 77.3385 480.08 77.4385 480.4C76.1585 481.53 74.9185 482.71 73.5885 483.77C36.5485 513.43 -0.501485 543.08 -37.5715 572.71C-38.7115 573.62 -40.0315 574.31 -41.2715 575.11C-41.2715 559.12 -41.2715 543.12 -41.2715 527.13C-40.3115 526.49 -39.2915 525.91 -38.3915 525.19C-20.8215 511.16 -3.26148 497.1 14.3085 483.08C15.2785 482.31 16.4085 481.74 17.4685 481.07C17.1885 480.62 16.9185 480.16 16.6385 479.71H-9.91148C-10.0215 479.39 -10.1315 479.06 -10.2515 478.74C38.8085 439.47 87.8585 400.19 137.789 360.22C127.789 359.73 118.839 360.37 109.939 359.89C109.849 359.52 109.759 359.15 109.669 358.79C158.729 319.51 207.789 280.24 256.859 240.96C256.749 240.64 256.639 240.33 256.529 240.01H229.548C229.458 239.71 229.358 239.4 229.268 239.1C278.448 199.73 327.618 160.36 376.798 120.99C376.688 120.69 376.579 120.39 376.469 120.09H348.139C353.619 115.64 358.079 111.97 362.589 108.36C406.299 73.4003 450.008 38.4503 493.708 3.47027C494.838 2.57027 495.729 1.37027 496.729 0.320267C516.229 0.320267 535.729 0.300267 555.229 0.390267C555.979 0.390267 557.649 -0.899733 557.729 1.32027L557.719 1.30027Z" fill="#FAFF47"/>
<path d="M14.719 891C20.069 886.54 25.349 881.99 30.779 877.62C45.699 865.62 60.679 853.69 75.629 841.73C76.259 841.23 76.819 840.65 78.379 839.22C68.339 838.9 59.339 839.26 49.149 838.95C99.089 798.97 148.209 759.64 197.319 720.32C197.219 720.03 197.109 719.73 197.009 719.44H170.379C170.209 719.08 170.049 718.71 169.879 718.35C218.909 679.09 267.929 639.84 316.959 600.58C316.819 600.18 316.679 599.79 316.539 599.39H290.099C290.009 599.05 289.909 598.71 289.819 598.37C338.859 559.12 387.899 519.87 436.939 480.61C436.879 480.28 436.819 479.96 436.759 479.63H409.849L409.589 478.55C458.489 439.39 507.399 400.24 556.299 361.08L556.069 359.98C547.269 359.72 538.439 359.95 528.769 359.78C533.469 354.82 538.569 351.48 543.209 347.63C547.949 343.7 552.859 339.99 557.699 336.18V408.16C556.589 408.86 555.389 409.46 554.369 410.27C527.059 432.1 499.759 453.95 472.469 475.82C471.239 476.81 470.099 477.92 468.919 478.97C473.589 479.86 477.989 479.84 482.399 479.87C486.889 479.89 491.379 479.96 495.869 480L496.029 480.95C447.059 520.16 398.079 559.37 349.109 598.57C358.359 600.09 367.199 599.18 376.129 600.89C327.209 640.05 278.279 679.21 229.359 718.38C229.449 718.72 229.549 719.05 229.639 719.39C234.049 719.39 238.449 719.37 242.859 719.39C247.359 719.42 251.869 719.49 256.369 719.54C256.419 719.89 256.469 720.23 256.519 720.58C207.469 759.85 158.419 799.12 109.369 838.39C109.489 838.7 109.599 839.01 109.719 839.32H136.779C136.859 839.59 136.949 839.87 137.029 840.14C115.919 857.09 94.819 874.04 73.709 890.99H14.709L14.719 891Z" fill="#35055A"/>
<path d="M496.719 0.300273C495.719 1.36027 494.829 2.55027 493.699 3.45027C450.009 38.4303 406.289 73.3803 362.579 108.34C358.069 111.95 353.609 115.62 348.129 120.07H376.459C376.569 120.37 376.679 120.67 376.789 120.97C327.609 160.34 278.439 199.71 229.259 239.08C229.349 239.38 229.449 239.69 229.539 239.99H256.519C256.629 240.31 256.739 240.62 256.849 240.94C207.789 280.22 158.729 319.49 109.659 358.77C109.749 359.14 109.839 359.51 109.929 359.87C118.819 360.35 127.779 359.71 137.779 360.2C87.8487 400.17 38.7887 439.45 -10.2612 478.72C-10.1512 479.04 -10.0412 479.37 -9.92125 479.69H16.6287C16.9087 480.14 17.1788 480.6 17.4588 481.05C16.3988 481.71 15.2688 482.28 14.2988 483.06C-3.28125 497.09 -20.8313 511.14 -38.4012 525.17C-39.3012 525.89 -40.3213 526.47 -41.2812 527.11C-41.2812 503.12 -41.2812 479.13 -41.2812 455.13C-40.0312 454.38 -38.6712 453.77 -37.5512 452.87C-4.13125 426.15 29.2687 399.4 62.6687 372.66C67.5587 368.74 72.4387 364.82 77.3187 360.89C77.2187 360.52 77.1088 360.14 77.0088 359.77H50.2188C50.1687 359.45 50.1087 359.13 50.0587 358.81C99.1087 319.54 148.169 280.26 197.219 240.99C197.109 240.61 197.009 240.24 196.899 239.86H170.139L169.949 238.87C219.009 199.6 268.059 160.33 317.119 121.06C317.019 120.76 316.909 120.46 316.809 120.15H288.749C290.389 118.66 291.169 117.86 292.039 117.17C328.429 88.0303 364.839 58.9203 401.219 29.7703C413.429 19.9903 425.559 10.1203 437.719 0.280273C457.389 0.280273 477.049 0.280273 496.719 0.280273V0.300273Z" fill="#35055A"/>
<path d="M73.719 891C94.829 874.05 115.929 857.1 137.039 840.15C136.959 839.88 136.869 839.6 136.789 839.33H109.729C109.609 839.02 109.499 838.71 109.379 838.4C158.429 799.13 207.479 759.86 256.529 720.59C256.479 720.24 256.429 719.9 256.379 719.55C251.879 719.5 247.369 719.43 242.869 719.4C238.459 719.37 234.059 719.4 229.649 719.4C229.559 719.06 229.459 718.73 229.369 718.39C278.289 679.23 327.219 640.07 376.139 600.9C367.209 599.19 358.369 600.1 349.119 598.58C398.089 559.37 447.069 520.16 496.039 480.96L495.879 480.01C491.389 479.96 486.899 479.9 482.409 479.88C478.009 479.86 473.609 479.88 468.929 478.98C470.109 477.93 471.249 476.82 472.479 475.83C499.769 453.97 527.059 432.12 554.379 410.28C555.399 409.46 556.599 408.87 557.709 408.17V456.15C546.179 464.24 531.869 476.19 529.809 479.78H556.269C556.359 480.11 556.449 480.43 556.539 480.76C507.509 520.01 458.469 559.27 409.439 598.52C409.539 598.83 409.649 599.14 409.749 599.46H436.359C436.509 599.83 436.649 600.19 436.799 600.56C387.729 639.85 338.649 679.14 289.579 718.42C294.459 719.23 298.949 719.12 303.419 719.26C307.919 719.4 312.479 718.64 317.709 719.84C268.019 759.62 218.959 798.9 169.889 838.18C169.989 838.52 170.089 838.85 170.189 839.19H198.169C196.109 840.97 195.039 841.95 193.919 842.86C178.069 855.57 162.189 868.25 146.369 881C142.379 884.21 138.589 887.67 134.709 891.01H73.709L73.719 891Z" fill="#FAFF47"/>
<path d="M437.719 0.299805C425.559 10.1298 413.429 20.0098 401.219 29.7898C364.839 58.9398 328.429 88.0598 292.039 117.19C291.169 117.89 290.389 118.68 288.749 120.17H316.809C316.909 120.47 317.019 120.77 317.119 121.08C268.059 160.35 219.009 199.62 169.949 238.89L170.139 239.88H196.899C197.009 240.26 197.109 240.63 197.219 241.01C148.169 280.28 99.1087 319.56 50.0587 358.83C50.1087 359.15 50.1687 359.47 50.2188 359.79H77.0088C77.1088 360.16 77.2187 360.54 77.3187 360.91C72.4387 364.83 67.5587 368.76 62.6687 372.68C29.2687 399.43 -4.13125 426.17 -37.5512 452.89C-38.6812 453.79 -40.0312 454.4 -41.2812 455.15C-41.2812 439.16 -41.2812 423.16 -41.2812 407.17C-40.4413 406.66 -39.5213 406.23 -38.7613 405.62C-21.0612 391.5 -3.39125 377.36 14.3088 363.24C15.2988 362.45 16.4288 361.82 17.4888 361.12C17.2388 360.72 16.9787 360.31 16.7287 359.91H-9.86125C-10.0012 359.58 -10.1513 359.24 -10.2913 358.91C38.8188 319.59 87.9288 280.28 137.039 240.96C136.909 240.62 136.779 240.29 136.639 239.95H109.629C109.549 239.68 109.479 239.4 109.399 239.13C158.569 199.77 207.739 160.41 256.899 121.04C256.779 120.71 256.649 120.38 256.529 120.06H229.529C232.639 116.56 235.979 113.87 239.319 111.19C284.029 75.3998 328.749 39.6198 373.449 3.7998C374.679 2.8098 375.629 1.4698 376.709 0.299805C397.039 0.299805 417.379 0.299805 437.709 0.299805H437.719Z" fill="#FAFF47"/>
<path d="M134.719 891C138.599 887.66 142.389 884.2 146.379 880.99C162.199 868.24 178.079 855.56 193.929 842.85C195.059 841.95 196.119 840.96 198.179 839.18H170.199C170.099 838.84 169.999 838.51 169.899 838.17C218.959 798.89 268.019 759.62 317.719 719.83C312.479 718.63 307.919 719.39 303.429 719.25C298.949 719.11 294.469 719.22 289.589 718.41C338.659 679.12 387.739 639.84 436.809 600.55C436.659 600.18 436.519 599.82 436.369 599.45H409.759C409.659 599.14 409.549 598.83 409.449 598.51C458.479 559.26 507.519 520 556.549 480.75C556.459 480.42 556.369 480.1 556.279 479.77H529.819C531.879 476.18 546.189 464.23 557.719 456.14V528.12C557.009 528.5 556.209 528.79 555.589 529.28C527.239 551.94 498.899 574.62 470.579 597.31C470.029 597.75 469.599 598.35 468.199 599.85H495.819C495.889 600.18 495.959 600.5 496.019 600.83C447.099 639.99 398.179 679.15 349.259 718.31C349.369 718.67 349.489 719.03 349.599 719.4H376.069C376.189 719.77 376.309 720.14 376.429 720.51C327.449 759.83 278.279 798.92 229.359 838.33C229.529 838.66 229.699 838.98 229.869 839.31H256.579C256.879 839.72 257.169 840.14 257.469 840.55C256.699 840.87 255.809 841.03 255.179 841.53C242.939 851.29 230.719 861.07 218.529 870.88C210.229 877.56 201.989 884.29 193.719 891H134.719Z" fill="#35055A"/>
<path d="M376.719 0.299805C375.639 1.4698 374.688 2.8098 373.458 3.7998C328.768 39.6198 284.048 75.3998 239.328 111.19C235.978 113.87 232.649 116.56 229.539 120.06H256.539C256.659 120.39 256.789 120.72 256.909 121.04C207.739 160.4 158.569 199.76 109.409 239.13C109.489 239.4 109.559 239.68 109.639 239.95H136.649C136.779 240.29 136.909 240.62 137.049 240.96C87.9385 280.28 38.8285 319.59 -10.2815 358.91C-10.1415 359.24 -9.99148 359.58 -9.85148 359.91H16.7385C16.9885 360.31 17.2485 360.72 17.4985 361.12C16.4385 361.82 15.3085 362.45 14.3185 363.24C-3.38148 377.36 -21.0515 391.5 -38.7515 405.62C-39.5215 406.23 -40.4315 406.66 -41.2715 407.17C-41.2715 383.18 -41.2715 359.19 -41.2715 335.19C-39.5015 334.06 -37.6015 333.08 -35.9715 331.78C-2.54148 305.07 30.8585 278.33 64.2685 251.58C68.6385 248.08 72.9785 244.54 77.3385 241.01C77.2385 240.66 77.1485 240.31 77.0485 239.95H50.2885C66.4285 225.89 82.7685 212.78 99.1185 199.69C115.629 186.48 132.189 173.33 148.659 160.07C164.849 147.03 181.239 134.23 197.269 120.99C197.109 120.63 196.939 120.27 196.779 119.91H169.289C171.159 118.27 172.209 117.26 173.349 116.35C213.129 84.5098 252.928 52.6998 292.678 20.8398C301.108 14.0798 309.399 7.1498 317.749 0.299805C337.419 0.299805 357.079 0.299805 376.749 0.299805H376.719Z" fill="#35055A"/>
<path d="M193.719 891C201.989 884.29 210.239 877.56 218.529 870.88C230.719 861.07 242.939 851.29 255.179 841.53C255.809 841.03 256.699 840.87 257.469 840.55C257.169 840.14 256.879 839.72 256.579 839.31H229.869C229.699 838.98 229.529 838.66 229.359 838.33C278.279 798.93 327.439 759.83 376.429 720.51C376.309 720.14 376.189 719.77 376.069 719.4H349.599C349.489 719.04 349.369 718.68 349.259 718.31C398.179 679.15 447.099 639.99 496.019 600.83C495.949 600.5 495.879 600.18 495.819 599.85H468.199C469.599 598.35 470.029 597.76 470.579 597.31C498.909 574.62 527.239 551.94 555.589 529.28C556.209 528.78 557.009 528.5 557.719 528.12V576.1C548.229 583.51 538.739 590.93 528.289 599.09H557.719V600.09C556.239 601.14 554.699 602.13 553.279 603.26C544.949 609.9 536.649 616.58 528.339 623.23C489.619 654.21 450.889 685.19 412.169 716.18C411.229 716.93 410.409 717.82 408.709 719.42H436.409C436.539 719.75 436.669 720.07 436.789 720.4C387.699 759.7 338.609 799.01 289.529 838.31C289.659 838.64 289.779 838.97 289.909 839.31H317.899C315.819 841.08 314.609 842.16 313.339 843.18C294.899 857.96 276.449 872.71 258.029 887.52C256.799 888.51 255.819 889.83 254.719 890.99H193.719V891Z" fill="#FAFF47"/>
<path d="M317.719 0.299805C309.369 7.1498 301.079 14.0898 292.649 20.8398C252.889 52.6998 213.089 84.5098 173.319 116.35C172.189 117.26 171.129 118.26 169.259 119.91H196.749C196.909 120.27 197.079 120.63 197.239 120.99C181.209 134.23 164.819 147.03 148.629 160.07C132.159 173.33 115.599 186.48 99.0892 199.69C82.7392 212.78 66.3992 225.89 50.2592 239.95H77.0192C77.1192 240.3 77.2092 240.65 77.3092 241.01C72.9492 244.53 68.6092 248.08 64.2392 251.58C30.8392 278.32 -2.57078 305.07 -36.0008 331.78C-37.6308 333.08 -39.5308 334.06 -41.3008 335.19C-41.3008 319.2 -41.3008 303.2 -41.3008 287.21C-40.3208 286.63 -39.2408 286.16 -38.3608 285.45C-20.6608 271.31 -2.98078 257.15 14.6992 242.98C15.5492 242.3 16.3092 241.52 17.9692 240H-11.4808C38.7092 199.82 87.8992 160.45 137.079 121.08C136.969 120.78 136.849 120.48 136.739 120.18H109.669C114.519 115.21 119.689 111.1 124.839 106.97C158.649 79.8998 192.459 52.8498 226.249 25.7598C236.769 17.3198 247.219 8.7898 257.699 0.309805C277.699 0.309805 297.699 0.309805 317.699 0.309805L317.719 0.299805Z" fill="#FAFF47"/>
<path d="M257.719 0.299805C247.239 8.7898 236.789 17.3198 226.269 25.7498C192.479 52.8398 158.669 79.8998 124.859 106.96C119.699 111.09 114.539 115.2 109.689 120.17H136.759C136.869 120.47 136.989 120.77 137.099 121.07C87.9088 160.44 38.7287 199.81 -11.4613 239.99H17.9888C16.3288 241.51 15.5688 242.29 14.7188 242.97C-2.96125 257.14 -20.6412 271.3 -38.3412 285.44C-39.2212 286.15 -40.3012 286.62 -41.2812 287.2C-41.2812 263.21 -41.2812 239.22 -41.2812 215.22C-39.8913 214.43 -38.3912 213.77 -37.1312 212.81C-33.9512 210.39 -30.8912 207.82 -27.7712 205.32C6.16875 178.17 40.1187 151.03 74.0587 123.87C75.2387 122.93 76.3487 121.91 77.4887 120.93C77.3087 120.6 77.1287 120.26 76.9587 119.93H49.3988C50.9588 118.51 51.7487 117.72 52.6087 117.03C98.2487 80.5198 143.899 44.0098 189.529 7.4698C192.359 5.1998 194.999 2.6998 197.719 0.299805C217.719 0.299805 237.719 0.299805 257.719 0.299805Z" fill="#35055A"/>
<path d="M197.719 0.299805C194.989 2.6998 192.359 5.1998 189.529 7.4698C143.909 44.0098 98.2585 80.5198 52.6185 117.04C51.7585 117.73 50.9685 118.52 49.4085 119.94H76.9685C77.1485 120.27 77.3285 120.61 77.4985 120.94C76.3585 121.92 75.2385 122.94 74.0685 123.88C40.1285 151.03 6.17851 178.18 -27.7615 205.33C-30.8815 207.83 -33.9515 210.4 -37.1215 212.82C-38.3815 213.78 -39.8815 214.43 -41.2715 215.23C-41.2715 199.24 -41.2715 183.24 -41.2715 167.25C-40.4115 166.8 -39.4615 166.48 -38.7215 165.89C-20.5115 151.34 -2.33148 136.76 15.8985 122.23C16.3985 121.83 17.2885 121.92 17.9885 121.78C17.6085 121.24 17.2385 120.71 16.8585 120.17H-11.1915C-9.40148 118.62 -8.46148 117.75 -7.46148 116.95C36.3285 81.8798 80.1385 46.8298 123.919 11.7598C128.579 8.0198 133.119 4.1298 137.719 0.299805C157.719 0.299805 177.719 0.299805 197.719 0.299805Z" fill="#FAFF47"/>
<path d="M137.719 0.299805C133.119 4.1198 128.589 8.0198 123.919 11.7598C80.1387 46.8298 36.3288 81.8798 -7.47125 116.95C-8.47125 117.75 -9.41125 118.62 -11.2013 120.17H16.8488C17.2288 120.71 17.5987 121.24 17.9787 121.78C17.2687 121.92 16.3887 121.83 15.8887 122.23C-2.33125 136.76 -20.5213 151.34 -38.7313 165.89C-39.4713 166.48 -40.4312 166.8 -41.2812 167.25C-41.2812 143.59 -41.2812 119.93 -41.2812 96.2698C-3.90125 66.3798 33.4788 36.4998 70.8388 6.5698C73.2588 4.6298 75.4388 2.3898 77.7188 0.299805C97.7188 0.299805 117.719 0.299805 137.719 0.299805Z" fill="#35055A"/>
<path d="M77.7188 0.299805C75.4288 2.3998 73.2488 4.6398 70.8388 6.5698C33.4788 36.4998 -3.90125 66.3798 -41.2812 96.2698C-41.2812 79.9398 -41.2812 63.6098 -41.2812 47.2898C-39.9013 46.4598 -38.4113 45.7798 -37.1613 44.7898C-20.5313 31.5398 -3.93125 18.2698 12.6488 4.9598C14.4388 3.5298 16.0287 1.8598 17.7188 0.299805C37.7188 0.299805 57.7188 0.299805 77.7188 0.299805Z" fill="#FAFF47"/>
<path d="M17.7188 0.299805C16.0388 1.8598 14.4388 3.5298 12.6488 4.9598C-3.93125 18.2698 -20.5313 31.5398 -37.1613 44.7798C-38.4113 45.7698 -39.9013 46.4598 -41.2812 47.2798C-41.2812 31.6198 -41.2812 15.9598 -41.2812 0.299805C-21.6112 0.299805 -1.95125 0.299805 17.7188 0.299805Z" fill="#35055A"/>
<path d="M557.718 240.22H529.558C529.418 239.83 529.278 239.45 529.148 239.06C538.668 231.45 548.198 223.84 557.718 216.23V240.22Z" fill="#35055A"/>
<path d="M557.719 120.26H528.849C529.619 119.2 529.879 118.62 530.329 118.26C538.439 111.72 546.559 105.2 554.719 98.7295C555.569 98.0595 556.709 97.7495 557.719 97.2695V120.26Z" fill="#35055A"/>
</g>
</g>
<defs>
<clipPath id="clip0_146_2701">
<rect width="558" height="556" fill="white"/>
</clipPath>
<clipPath id="clip1_146_2701">
<rect width="599" height="891" fill="white" transform="translate(-41.2812)"/>
</clipPath>
</defs>
</svg>
